<svg xmlns="http://www.w3.org/2000/svg" width="477.75" height="170.805" viewBox="0 0 447.891 160.13"><path style="line-height:normal;text-indent:0;text-align:start;text-decoration-line:none;text-decoration-style:solid;text-decoration-color:#000;text-transform:none;block-progression:tb;white-space:normal;isolation:auto;mix-blend-mode:normal;solid-color:#000;solid-opacity:1" d="M5.99 21.928c-.784-.009-1.44.878-1.488 2.006-.048 1.127.527 2.093 1.299 2.189a512.368 512.368 0 0 1 46.572 8.715 81.687 81.687 0 0 1 1.566-3.928 516.18 516.18 0 0 0-47.804-8.969 1.032 1.032 0 0 0-.145-.013zm51.483 9.834a72.629 72.629 0 0 0-1.596 3.924c.533.13 1.07.257 1.602.388a34.688 34.688 0 0 1 2.212-3.777c-.733-.183-1.482-.355-2.218-.535zm5.937 1.498a29.5 29.5 0 0 0-2.36 3.71 473.239 473.239 0 0 1 14.837 4.036c20.687 6.03 39.564 13.167 56.472 20.601 1.525.672 3.027 1.352 4.53 2.032V59.05c-1.099-.492-2.187-.987-3.297-1.475-17.18-7.534-36.224-14.695-56.998-20.726a478.35 478.35 0 0 0-13.184-3.59ZM5.291 47.576c-.753.028-1.363.953-1.38 2.088-.019 1.135.56 2.07 1.304 2.111a492.021 492.021 0 0 1 36.865 4.59c.742-1.593 1.126-2.833 1.197-3.543a2.57 2.57 0 0 0 .02-.511c-.438-.072-.875-.147-1.313-.217-.082.048-.162.087-.25.156-.71.56-1.602.928-2.535.879-.933-.049-1.779-.529-2.353-1.149a4.99 4.99 0 0 1-.578-.773A499.819 499.819 0 0 0 5.43 47.578a.904.904 0 0 0-.139-.002zm41.56 5.32c-.004.096-.004.191-.013.286-.117 1.157-.501 2.389-1.102 3.789 2.744.47 5.483.965 8.217 1.484a6.77 6.77 0 0 1 .824-1.857c.51-.782 1.202-1.383 1.998-1.883a464.097 464.097 0 0 0-9.923-1.819zm15.088 2.868c-.647.614-1.467 1.103-2.396 1.513-1.033.457-1.467.812-1.77 1.276-.1.154-.19.36-.275.592 4.937.978 9.86 2.025 14.76 3.171 18.733 4.392 37.02 10.024 54.789 16.688a513.348 513.348 0 0 1 9.842 3.82v-4.513a513.742 513.742 0 0 0-8.614-3.33c-17.929-6.714-36.39-12.389-55.312-16.813a447.081 447.081 0 0 0-11.024-2.404zm79.051 5.14v4.614a578.039 578.039 0 0 1 8.832 4.171l.287-4.503a568.228 568.228 0 0 0-9.119-4.282zm14.994 7.139-2.709 3.334c1.677.823 3.333 1.645 4.97 2.465l.405-.32.594.822a869.548 869.548 0 0 1 16.258 8.414l-6.145-7.95a746.52 746.52 0 0 0-13.373-6.765zM4.707 74.154c-.73-.018-1.341.908-1.367 2.069-.026 1.16.538 2.114 1.26 2.132 10.205.257 20.403.839 30.568 1.756-.29-.771-.597-1.423-.918-1.931-.962-1.525-1.759-1.95-3.162-1.95-1.417 0-1.6.087-2.416 1.08l-1.635 1.99-2.174-.988c-1.455-.664-2.34-1.92-2.79-3.405a485.597 485.597 0 0 0-17.366-.752Zm32.424 1.909c.047.07.1.132.146.205.74 1.17 1.324 2.572 1.805 4.22 4.088.406 8.17.863 12.244 1.383a2.902 2.902 0 0 1-.736-1.207c-.155-.525-.17-.971-.17-1.443 0-.198-.106-.952-.25-1.723a439.414 439.414 0 0 0-6.893-.803c-.089.071-.168.145-.275.215-.207.136-.32.395-1.211.395-1.167 0-1.296-.518-1.441-.692-.086-.102-.116-.163-.163-.236-1.019-.103-2.036-.219-3.056-.314Zm16.736 1.898c.036.316.063.625.074.922.1-.013.112.002.237-.026 1.85-.41 3.697-.17 5.058.905 1.057.834 1.683 2.08 1.912 3.476 2.452.372 4.901.76 7.346 1.176 14.02 2.387 27.91 5.535 41.621 9.33.64-.374 1.352-.632 2.104-.67 1.302-.065 2.54.345 3.943.998a14.313 14.313 0 0 1 3.742 2.5c.543.164 1.087.32 1.63.485 15.117 4.616 29.996 10.026 44.794 15.662 13.45 5.123 26.857 10.43 40.502 15.144 13.11 4.53 26.473 8.473 40.143 11.065 14.369 2.723 29.038 3.892 43.66 3.363 17.242-.626 34.34-3.535 50.99-7.93 1.049-.277 2.095-.56 3.14-.847-1.01.347-2.04.694-3.09 1.043-12.643 4.195-30.467 9.16-50.915 11.181-13.184 1.295-28.332 1.408-44.945-.695-13.275-1.688-26.956-4.644-41.881-8.79-14.15-3.92-26.235-7.86-41.75-12.651-12.193-3.759-25.657-7.748-39.328-11.131l-.71 2.03a43.77 43.77 0 0 0-.623 1.962c13.586 3.351 27.004 7.323 39.165 11.068 15.534 4.795 27.59 8.733 41.873 12.7 15.075 4.202 28.96 7.207 42.47 8.947 16.962 2.169 32.429 2.068 45.881.767 20.191-1.976 37.745-6.726 50.42-10.851-15.909 6.382-32.67 11.42-50.297 14.273-15.41 2.468-31.278 3.16-47.193 2.088-15.104-1.035-29.948-3.472-44.287-6.53-14.885-3.147-29.287-6.8-43.18-10.07-12.723-2.978-25.229-5.707-37.486-7.845-1.474 1.135-3.244 2.23-5.346 3.332 13.436 2.182 27.227 5.158 41.33 8.453 13.859 3.258 28.304 6.927 43.307 10.117 14.46 3.104 29.499 5.592 44.877 6.686 16.214 1.129 32.393.46 48.13-2.018 18.515-2.956 36.05-8.253 52.614-14.973 18.933-7.68 36.7-17.071 53.715-27.347a1643.82 1643.82 0 0 0 4.588-2.35 35.446 35.446 0 0 1 .649-.328l.01-.004c.327-.14.547-.482.61-.95-.267.337-.536.673-.804 1.009h-.002l-.13-.39.245-.15c.598-.364.695-1.437.223-2.445-.473-1.008-1.35-1.601-1.997-1.355-.015.006-.031.01-.046.017l-.004.002-.254.116-1.553.58c-.42.126-2.607.784-5.268 1.554-2.656.77-21.935 6.488-43.193 10.084a291.222 291.222 0 0 1-12.11 1.793c-12.79 1.61-30.215 2.91-48.529.979-11.815-1.222-24.798-3.84-38.427-8.506-11.042-3.746-22.209-8.735-34.987-15.148-2.344-1.18-4.545-2.326-6.76-3.477v1.531h-6.09a615.274 615.274 0 0 0 11.475 5.93c13.027 6.523 24.37 11.538 35.576 15.307 14.09 4.774 27.406 7.378 39.366 8.576 17.022 1.73 33.076.763 45.304-.616-15.108 2.689-30.292 4.072-45.197 3.577-13.749-.44-27.367-2.492-40.533-5.942-12.558-3.27-24.899-7.873-37.227-13.058-10.152-4.28-20.36-9.006-30.718-13.774h-10.067l.287.13c13.248 6.04 26.146 12.154 39.125 17.618 12.448 5.233 24.985 9.888 37.817 13.217 13.463 3.507 27.394 5.58 41.468 6.01 16.456.514 33.173-1.182 49.705-4.373-16.254 4.253-32.881 7.068-49.585 7.668-14.296.519-28.655-.63-42.727-3.295-13.396-2.534-26.56-6.422-39.55-10.906-13.53-4.673-26.896-9.967-40.38-15.102-10.01-3.813-20.083-7.521-30.26-10.967h-.283v-.047h-.392v-.181a517.048 517.048 0 0 0-14.13-4.557c-17.556-5.363-35.445-9.68-53.56-12.766a420.95 420.95 0 0 0-15.332-2.31Zm124.203 1.418 6.24 8.072c2.835 1.52 5.569 2.984 8.135 4.367V87.07a2156.16 2156.16 0 0 0-13.578-7.273c-.256-.136-.539-.281-.797-.418zm-37.08.568v4.533a646.044 646.044 0 0 1 9.518 3.973V83.89a631.717 631.717 0 0 0-9.518-3.942zm-85.293 2.297a4.75 4.75 0 0 0-.756.11c.722.098 1.442.202 2.162.304-.028-.027-.054-.064-.083-.088-.26-.205-.665-.363-1.323-.326zm98.912 3.416v4.576a990.056 990.056 0 0 1 16.305 7.248l-4.935-6.828a872.086 872.086 0 0 0-11.37-4.996zm41.938 3.621v4.44h8.322c-2.727-1.444-5.51-2.926-8.322-4.44zM20.06 100.328c-5.277.042-10.633.176-16.073.406-.705-.003-1.284.972-1.283 2.155.002 1.182.581 2.107 1.277 2.045 9.78-.418 19.267-.507 28.504-.319-.046-.083-.09-.178-.138-.25-.277-.41-.324-.421-.346-.433-.022-.013-.25-.098-.91-.174-1.45-.168-2.807-.688-3.737-1.746a4.784 4.784 0 0 1-.939-1.68c-2.108-.013-4.22-.02-6.355-.004zm12.709.096c.32.085.634.195.949.367.712.39 1.203.99 1.597 1.576.467.694.822 1.482 1.098 2.338 2.65.079 5.276.182 7.883.309.415-1.249.853-2.692 1.285-4.131a421.19 421.19 0 0 0-12.812-.46zm16.484.66a176.08 176.08 0 0 1-1.26 4.13c5.677.33 11.262.76 16.735 1.313 15.728 1.578 30.795 4.108 44.931 7.182a13.32 13.32 0 0 0-.375-1.906c-.396-1.376-1.057-2.255-1.29-2.408h-.003l-.082-.055-1.549.582c-1.473.554-2.588.986-3.968.644-.69-.17-1.334-.619-1.748-1.117-.415-.498-.667-1.02-.903-1.586-.067-.16-.117-.323-.174-.486-10.94-2.08-22.348-3.805-34.132-4.996-5.3-.54-10.7-.966-16.182-1.297zm63.21 8.953c.09.257.185.507.263.775.327 1.138.523 2.403.607 3.723.891.202 1.793.398 2.676.604.675.157 1.348.325 2.023.486.209-.703.433-1.443.733-2.303l.591-1.695c-.706-.169-1.411-.345-2.119-.51a442.49 442.49 0 0 0-4.773-1.08zM58.98 125.213c-2.001.81-4.275 1.228-7.218 1.375-2.652.132-4.58.016-6.496-.434-.87-.204-1.787-.512-2.686-.847-.523.014-1.047.022-1.57.039a29.68 29.68 0 0 1 5.275 2.71c.658.43 1.254.865 1.817 1.307 4.244-.055 8.49-.05 12.732.043.579.012 1.16.036 1.74.051l.014-.027c.164-.285.311-.423.441-.543.26-.24.486-.378.737-.524a11.14 11.14 0 0 1 1.77-.804c1.68-.613 2.678-1.245 3.353-2.063a346.209 346.209 0 0 0-7.348-.248c-.853-.02-1.707-.02-2.56-.035zm-24.085.377c-1.207.056-2.413.11-3.62.178-.002.008-.001.017-.004.025-.135.541-.307.768-.498 1.07-.19.303-.411.613-.664.944a34.126 34.126 0 0 1-1.777 2.113c-.07.077-.14.148-.21.225 1.135-.073 2.27-.154 3.407-.217a34.13 34.13 0 0 1 2.89-3.801l.476-.537zm38.02.101c-.022.05-.039.101-.061.15-.747 1.645-2.103 2.869-3.805 3.843a369.435 369.435 0 0 1 26.48 2.144l.307-.103a24.62 24.62 0 0 0 6.363-3.27c-9.81-1.3-19.584-2.234-29.285-2.764zm-45.99.346c-2.798.186-5.596.394-8.392.635-.572.755-1.334 1.333-2.234 1.588-1.64.464-3.39.064-5.121-.856l-.06-.033-.868.088c-.611.826-1.348 2.537-1.348 3.799l.002.55c2.99-.325 5.98-.629 8.973-.894.033-.223.068-.443.121-.66.13-.534.35-1.307 1.25-1.791s1.766-.204 2.272.025c.505.23.922.51 1.435.858.232.157.415.236.576.306.131-.108.262-.215.442-.382a30.659 30.659 0 0 0 1.707-1.752c.466-.516.87-1.012 1.246-1.48zm10.669 1.902-.49.557h-.002c-.33.373-.66.798-.989 1.215 1.823-.08 3.646-.15 5.469-.205a24.46 24.46 0 0 0-3.152-1.295l-.836-.272zm-31.725.014c-.699.08-1.399.153-2.098.236-.22 1.159-.238 2.53-.001 3.893.017.102.051.2.072.303.516-.062 1.034-.118 1.55-.178-.037-.31-.07-.62-.07-.95 0-1.127.19-2.252.547-3.304zm101.244 1.182a26.82 26.82 0 0 1-4.799 3.543c1.842.247 3.684.508 5.528.781.76-.671 1.694-1.091 3.07-1.78a51.629 51.629 0 0 0 2.834-1.53c-.736-.12-1.476-.246-2.21-.36-1.476-.23-2.949-.44-4.423-.654z" color="#000" font-weight="400" font-family="sans-serif" overflow="visible" fill="#c1c1c1"/><path d="M103.2 1.79c-1.894.01-3.787.13-3.924.352-.122.197-.735.359-1.363.359-1.754 0-8.115 1.637-11.61 2.987-4.258 1.645-10.033 4.57-13.615 6.898-1.63 1.06-3.082 1.927-3.223 1.927-.14 0-.714-.577-1.277-1.282-1.508-1.89-2.974-2.653-5.1-2.654-1.3 0-2.176.231-3.041.806-1.475.98-2.827 3.522-2.827 5.313v1.314l1.24.233c3.028.569 3.192 2.922.494 7.129-2.347 3.658-4.19 7.878-6.58 15.08-1.045 3.145-2.075 5.775-2.291 5.847-.216.072-1.151-.714-2.079-1.745-.927-1.032-2.333-2.169-3.125-2.528-4.157-1.89-7.806.533-7.806 5.184 0 3.448 1.706 5.287 3.554 3.833 1.12-.88 2.53-.95 3.628-.181 1.294.906 1.073 3.088-.68 6.743-1.836 3.826-2.12 5.786-1.091 7.53.593 1.004.701 1.623.534 3.038-.17 1.425-.058 2.03.554 3.069.42.711.762 1.478.762 1.703 0 .45-2.132 2.77-2.544 2.77-.142 0-.605-1.087-1.033-2.416-1.001-3.112-1.776-4.34-3.996-6.336-1.975-1.775-3.876-2.209-4.535-1.032-.228.409-1.087.687-2.733.886-4.087.492-6 2.302-6 5.678 0 2.02.866 3.821 2.11 4.388l.924.42.762-.928c1.043-1.269 2.062-1.734 3.798-1.734 3.894 0 6.133 3.55 7.33 11.614.61 4.102.726 11.536.194 12.369-.279.436-.653.184-2-1.352-2.851-3.251-5.201-3.83-7.475-1.833l-1.265 1.111v1.731c0 2.41 1.067 3.626 3.426 3.899 1.46.169 1.864.39 2.535 1.386 1.174 1.746 1.68 4.744 1.433 8.48-.25 3.77-1.01 6.597-2.023 7.513-.623.564-.904.598-2.092.242-.755-.226-1.651-.719-1.99-1.093l-.615-.68.557-1.336c.792-1.897.717-4.169-.175-5.303-1.408-1.79-4.584-1.998-6.087-.399-.802.854-.803.868-.107 4.188.13.616-.01 1.318-.377 1.878l-.588.895H17.54c-4.869 0-7.042.572-10.239 2.693-1.926 1.279-3.91 3.632-4.79 5.686-1.51 3.517-.536 9.128 2.106 12.129 1.787 2.03 5.093 3.727 8.349 4.285 4.666.8 10.703-.752 13.813-3.549 2.2-1.978 3.26-2.398 4.27-1.692.886.621.987 1.648.223 2.282-.782.649-.662 1.28.405 2.12 1.142.898 3.553.993 4.707.184 1.141-.799 1.867-2.397 1.867-4.106 0-1.144-.23-1.704-1.014-2.488-.944-.945-3.026-1.79-4.422-1.794-.333-.001-.712-.172-.84-.378-.255-.413 1.8-3.565 3.787-5.811l1.268-1.436 1.953.634c4.398 1.428 9.07 4.477 10.194 6.65 1.003 1.939.848 2.244-2.295 4.584l-.853.636.634 1.333c.348.734 1.086 1.568 1.64 1.855 1.189.614 3.299.68 4.318.135 1.193-.638 2.077-3.093 2.086-5.788.005-1.732.14-2.417.47-2.417.255 0 2.067.66 4.027 1.464 8.329 3.416 19.825 6.952 26.828 8.249h.002c2.89.534 4.715.628 9.484.489 10.073-.294 14.77-1.69 15.757-4.681.356-1.08.33-1.371-.189-1.944-.335-.37-1.077-.774-1.647-.9-1.778-.39-1.16-1.176 2.274-2.893 6.01-3.006 9.037-5.605 10.642-9.142 1.339-2.95.654-5.062-1.801-5.553-.589-.117-1.153-.349-1.256-.515-.103-.166.418-2.037 1.158-4.16l1.345-3.856.011-3.758.014-3.759-.962-1.822c-1.15-2.178-2.992-3.874-5.457-5.022-2.553-1.188-3.962-1.118-5.25.261-.571.612-1.037 1.243-1.037 1.403 0 .16-.783.55-1.738.867-2.439.81-4.938 2.48-5.78 3.859-.837 1.374-.92 3.387-.21 5.089.81 1.937 1.557 2.122 4.34 1.074l2.4-.904.843.555c1.725 1.13 2.826 4.955 2.596 9.024-.383 6.781-6.648 13.598-15.158 16.496l-2.864.974-7.694-.023c-5.547-.017-8.685-.195-11.24-.636-3.91-.675-10.304-2.694-10.496-3.314-.067-.217.846-.748 2.03-1.179 2.646-.965 4.214-2.244 5.075-4.138 1.273-2.804.508-6.66-1.657-8.364-2.01-1.58-5.495-1.85-6.818-.526-.44.44-.551 1.106-.46 2.756l.122 2.177-1.736 1.163c-2.413 1.616-4.83 2.285-9.002 2.493-2.56.128-4.267.017-5.998-.39-2.357-.553-5.74-2.027-6.14-2.674-.11-.178.625-2.072 1.634-4.211 3.026-6.415 4.706-10.997 7.067-19.282 1.234-4.331 2.512-8.439 2.84-9.128.69-1.448 1.806-1.778 3.112-.923 1.131.742 1.894.712 3.278-.132 1.411-.86 2-1.917 2-3.589 0-3.002-1.932-4.526-4.901-3.868-1.931.428-2.356.18-2.356-1.384 0-.732-.26-2.265-.58-3.405l-.583-2.071 1.119-1.275c1.182-1.346 1.442-2.836.73-4.169-.313-.584-.245-.878.342-1.503 1.099-1.17 1.845-3.244 2.083-5.792.285-3.055 1.097-4.302 3.5-5.365 2.924-1.293 3.543-3.16 1.65-4.975-1.027-.984-2.198-1.127-4.323-.533-1.574.44.06-7.395 2.654-12.73 2.602-5.348 6.258-9.446 10.232-11.472 1.592-.811 6.211-1.16 6.975-.526.297.246.54.804.54 1.24 0 .434.102.893.226 1.018.325.324 1.56-.378 2.906-1.653.926-.876 1.163-1.386 1.163-2.498 0-1.42-.916-2.615-3.26-4.25-1.137-.792-.725-1.453 2.104-3.39 5.196-3.558 10.836-4.463 17.066-2.734 3.01.836 5.276 3.062 6.113 6.005.8 2.814 1.35 3.401 3.178 3.4 1.816-.002 3.695-1.098 4.006-2.337.377-1.505-.086-3.695-1.105-5.236-1.246-1.883-.99-2.61.804-2.274 2.898.543 4.133 1.95 4.56 5.196.391 2.968 1.294 3.62 2.91 2.102 1.15-1.08 1.923-.656 1.923 1.058 0 1.125-.288 1.719-1.5 3.097l-1.501 1.703.964.704c2.086 1.52-.53 1.881-3.332.461-.97-.492-1.848-.895-1.948-.895-.1 0-.426.477-.727 1.058-1.137 2.2-.448 5.216 1.58 6.923 1.325 1.115 2.112 1.187 4.411.403 6.4-2.18 9.57-11.66 6.56-19.613-2.402-6.347-8.327-11.3-14.625-12.224-.937-.138-1.791-.395-1.899-.569-.136-.22-2.03-.32-3.924-.31zM18.068 122.94l2.305.033c2.696.037 8.228.787 8.91 1.21.297.182.391.621.252 1.176-.262 1.045-4.624 5.861-5.583 6.166-.403.127-1.19-.147-2.002-.697-1.957-1.328-2.185-1.205-2.412 1.295-.238 2.632-.966 3.76-3.13 4.866-.866.443-2.07.806-2.677.806-1.676 0-4.15-1.434-5.452-3.16-.965-1.278-1.168-1.867-1.168-3.376 0-2.104 1.041-4.558 2.38-5.611l.883-.697 1.642.874c2.928 1.556 5.262.895 5.791-1.64l.261-1.245Z" fill="#a4e200"/><path style="line-height:125%;-inkscape-font-specification:'Open Sans, Bold';text-align:start" d="m152.038 69.842 5.768-7.25 13.575-14.5h14.92l-19.257 20.684 20.427 26.995h-15.266L158.24 76.452l-5.681 4.478v14.841H139.33V29.413h13.228V59.01l-.694 10.832h.173zm55.687 25.929h-13.228V29.413h13.228V95.77zm13.271-60.004q0-6.354 7.199-6.354 7.2 0 7.2 6.354 0 3.028-1.822 4.734-1.778 1.663-5.378 1.663-7.2 0-7.2-6.397zm13.791 60.004H221.56V48.092h13.228v47.68zm58.593 0h-13.228V67.923q0-5.16-1.865-7.72-1.865-2.6-5.942-2.6-5.551 0-8.023 3.667-2.472 3.625-2.472 12.069v22.432h-13.228V48.092h10.105l1.778 6.099h.737q2.212-3.455 6.072-5.203 3.903-1.791 8.848-1.791 8.457 0 12.837 4.52 4.38 4.478 4.38 12.965v31.09zm55.902-47.679v6.61l-7.59 1.92q2.082 3.198 2.082 7.164 0 7.677-5.464 11.984-5.421 4.265-15.093 4.265l-2.385-.128-1.952-.214q-2.038 1.536-2.038 3.412 0 2.815 7.286 2.815h8.24q7.98 0 12.144 3.369 4.207 3.37 4.207 9.894 0 8.359-7.113 12.965-7.07 4.606-20.34 4.606-10.149 0-15.527-3.497-5.334-3.455-5.334-9.724 0-4.307 2.732-7.207 2.733-2.9 8.024-4.137-2.039-.853-3.557-2.772-1.518-1.962-1.518-4.137 0-2.73 1.605-4.52 1.605-1.834 4.64-3.583-3.816-1.62-6.071-5.203-2.212-3.582-2.212-8.444 0-7.804 5.161-12.069 5.161-4.264 14.746-4.264 2.038 0 4.814.383 2.819.342 3.6.512h16.913zm-37.427 54.417q0 2.687 2.602 4.222 2.645 1.536 7.373 1.536 7.112 0 11.145-1.92 4.034-1.918 4.034-5.245 0-2.687-2.386-3.71-2.385-1.024-7.372-1.024h-6.853q-3.643 0-6.115 1.664-2.428 1.705-2.428 4.477zm4.814-38.808q0 3.88 1.778 6.141 1.821 2.26 5.508 2.26 3.73 0 5.464-2.26 1.735-2.26 1.735-6.141 0-8.615-7.2-8.615-7.285 0-7.285 8.615zm60.977 22.56q3.47 0 8.327-1.493v9.681q-4.944 2.175-12.144 2.175-7.936 0-11.58-3.923-3.599-3.966-3.599-11.856V57.858h-6.332v-5.501l7.286-4.35 3.817-10.065h8.457v10.15h13.574v9.766h-13.574v22.987q0 2.772 1.561 4.094 1.605 1.322 4.207 1.322z" font-weight="700" font-family="Open Sans" letter-spacing="0" word-spacing="0" fill="#fff"/><path style="line-height:125%;-inkscape-font-specification:'Open Sans, Bold';text-align:start" d="m151.92 69.795 5.892-7.25 13.867-14.5h15.24l-19.67 20.684 20.866 26.996H172.52l-14.265-19.32-5.804 4.479v14.84H138.94v-73l13.512 6.642v29.597l-.708 10.832h.177z" font-weight="700" font-family="Open Sans" letter-spacing="0" word-spacing="0" fill="#fff"/></svg>