<?xml version="1.0" encoding="UTF-8" standalone="no"?>
<svg
   version="1.1"
   id="svg2"
   viewBox="0 0 447.89076 160.12995"
   height="45.19223mm"
   width="126.40472mm"
   xmlns="http://www.w3.org/2000/svg"
   xmlns:svg="http://www.w3.org/2000/svg"
   xmlns:rdf="http://www.w3.org/1999/02/22-rdf-syntax-ns#"
   xmlns:cc="http://creativecommons.org/ns#"
   xmlns:dc="http://purl.org/dc/elements/1.1/">
  <defs
     id="defs4" />
  <metadata
     id="metadata7">
    <rdf:RDF>
      <cc:Work
         rdf:about="">
        <dc:format>image/svg+xml</dc:format>
        <dc:type
           rdf:resource="http://purl.org/dc/dcmitype/StillImage" />
      </cc:Work>
    </rdf:RDF>
  </metadata>
  <g
     style="display:inline"
     transform="translate(-4.6041452,25.723317)"
     id="g5171">
    <path
       style="color:#000000;font-style:normal;font-variant:normal;font-weight:normal;font-stretch:normal;font-size:medium;line-height:normal;font-family:sans-serif;text-indent:0;text-align:start;text-decoration:none;text-decoration-line:none;text-decoration-style:solid;text-decoration-color:#000000;letter-spacing:normal;word-spacing:normal;text-transform:none;writing-mode:lr-tb;direction:ltr;baseline-shift:baseline;text-anchor:start;white-space:normal;clip-rule:nonzero;display:inline;overflow:visible;visibility:visible;opacity:1;isolation:auto;mix-blend-mode:normal;color-interpolation:sRGB;color-interpolation-filters:linearRGB;solid-color:#000000;solid-opacity:1;fill:#cbcbcb;fill-opacity:1;fill-rule:nonzero;stroke:none;stroke-width:2.927;stroke-linecap:round;stroke-linejoin:miter;stroke-miterlimit:4;stroke-dasharray:none;stroke-dashoffset:0;stroke-opacity:1;color-rendering:auto;image-rendering:auto;shape-rendering:auto;text-rendering:auto;enable-background:accumulate"
       d="m 5.9902344,21.927734 c -0.7843553,-0.0085 -1.4400016,0.878349 -1.4882813,2.00586 -0.048275,1.127414 0.5266956,2.093871 1.2988281,2.189453 16.2787308,2.281609 31.7983808,5.228785 46.5722658,8.714844 0.531464,-1.430676 1.048844,-2.72862 1.566406,-3.927735 -15.216232,-3.610651 -31.145798,-6.642157 -47.8046874,-8.96875 -0.04769,-0.0074 -0.096468,-0.01308 -0.1445312,-0.01367 z m 51.4824216,9.833985 c -0.523092,1.177286 -1.049771,2.472205 -1.595703,3.923828 0.533087,0.129967 1.070484,0.257284 1.601563,0.388672 0.677519,-1.336298 1.414612,-2.599554 2.21289,-3.777344 -0.733246,-0.183349 -1.48202,-0.354572 -2.21875,-0.535156 z m 5.9375,1.498047 c -0.844976,1.122544 -1.63381,2.368555 -2.359375,3.710937 5.032504,1.28592 9.987513,2.626748 14.835938,4.035156 20.686904,6.029566 39.564581,13.166705 56.472661,20.601563 1.52414,0.671363 3.02651,1.351358 4.52929,2.03125 v -4.587891 c -1.09831,-0.492147 -2.18713,-0.98696 -3.29687,-1.474609 C 116.41257,50.041662 97.367604,42.88129 76.59375,36.849609 72.271504,35.599263 67.863852,34.41107 63.410156,33.259766 Z M 5.2910156,47.576172 c -0.7527305,0.02758 -1.3628446,0.952529 -1.3808594,2.08789 -0.018013,1.135281 0.5615653,2.069691 1.3046876,2.111329 12.3345082,1.065687 24.6371382,2.594855 36.8652342,4.589843 0.741434,-1.592869 1.125608,-2.832976 1.197266,-3.542968 0.03162,-0.313287 0.02688,-0.421632 0.01953,-0.511719 -0.437579,-0.07192 -0.874738,-0.146106 -1.3125,-0.216797 -0.0825,0.04839 -0.161948,0.08699 -0.25,0.15625 -0.711277,0.559493 -1.602415,0.927546 -2.535156,0.878906 -0.93274,-0.04864 -1.779056,-0.528829 -2.353516,-1.148437 -0.221595,-0.23901 -0.409047,-0.500406 -0.578125,-0.773438 C 26.022352,49.679457 15.734739,48.46515 5.4296875,47.578125 c -0.046247,-0.0047 -0.09225,-0.0044 -0.1386719,-0.002 z m 41.5605464,5.320312 c -0.0045,0.09519 -0.0042,0.191006 -0.01367,0.285157 -0.116801,1.157186 -0.501207,2.389308 -1.101563,3.789062 2.743204,0.46988 5.482506,0.964876 8.216797,1.484375 0.1919,-0.669199 0.452985,-1.288236 0.824219,-1.857422 0.509534,-0.78123 1.20193,-1.382386 1.998047,-1.882812 -3.301955,-0.64283 -6.609593,-1.247608 -9.923829,-1.81836 z m 15.087891,2.867188 c -0.647141,0.613842 -1.467682,1.102909 -2.396484,1.513672 -1.032977,0.456827 -1.466933,0.81144 -1.769531,1.27539 -0.100571,0.154198 -0.19051,0.359547 -0.275391,0.591797 4.936606,0.97866 9.859015,2.025813 14.759765,3.171875 18.733611,4.391322 37.019808,10.023506 54.789068,16.6875 3.30729,1.241633 6.58356,2.520089 9.84179,3.820313 v -4.513672 c -2.85335,-1.128674 -5.71932,-2.245027 -8.61328,-3.330078 -17.92892,-6.713587 -36.390156,-12.388006 -55.312499,-16.8125 -3.663313,-0.854158 -7.34098,-1.643108 -11.023438,-2.404297 z m 79.050777,5.140625 v 4.613281 c 2.9907,1.383992 5.94286,2.77499 8.83204,4.171875 l 0.28711,-4.503906 c -2.98734,-1.434199 -6.02686,-2.863547 -9.11915,-4.28125 z m 14.99415,7.138672 -2.70899,3.333984 c 1.67628,0.823123 3.33273,1.6448 4.96875,2.464844 l 0.40625,-0.320313 0.59375,0.822266 c 5.70769,2.872125 11.11979,5.692193 16.25781,8.414062 l -6.14453,-7.949218 c -4.30011,-2.22769 -8.75693,-4.49044 -13.37304,-6.765625 z M 4.7070312,74.154297 c -0.7301569,-0.01834 -1.34106,0.908014 -1.3671874,2.068359 -0.026128,1.160347 0.5382697,2.114653 1.2597656,2.132813 10.2056466,0.256879 20.4032976,0.838319 30.5683596,1.755859 -0.290825,-0.77135 -0.597156,-1.423324 -0.917969,-1.93164 -0.96244,-1.524948 -1.758818,-1.949219 -3.162109,-1.949219 -1.416604,0 -1.599233,0.08691 -2.416016,1.080078 l -1.634766,1.988281 -2.173828,-0.988281 C 23.407588,77.647283 22.522432,76.39055 22.072266,74.90625 16.287714,74.553505 10.498308,74.299737 4.7070312,74.154297 Z M 37.130859,76.0625 c 0.04726,0.07034 0.100912,0.132869 0.146485,0.205078 0.739187,1.171213 1.323642,2.572616 1.804687,4.220703 4.087644,0.405227 8.170292,0.862387 12.244141,1.382813 -0.368219,-0.357208 -0.621418,-0.818753 -0.736328,-1.207032 -0.155311,-0.524773 -0.169922,-0.971481 -0.169922,-1.443359 -10e-7,-0.19801 -0.105459,-0.951494 -0.25,-1.722656 -2.295697,-0.284174 -4.592932,-0.554876 -6.892578,-0.802735 -0.08939,0.07097 -0.168734,0.14466 -0.275391,0.214844 -0.206986,0.136203 -0.320561,0.394532 -1.210937,0.394532 -1.166667,-8e-6 -1.296219,-0.517677 -1.441407,-0.691407 C 40.26427,76.511165 40.233748,76.450061 40.1875,76.376953 39.168442,76.274294 38.150555,76.158195 37.130859,76.0625 Z m 16.736329,1.898438 c 0.03559,0.316416 0.06248,0.625493 0.07422,0.921874 0.09882,-0.01286 0.111727,0.0022 0.236328,-0.02539 1.849489,-0.40994 3.697588,-0.169945 5.058594,0.904297 1.056916,0.834225 1.682412,2.080131 1.91211,3.476562 2.451807,0.372001 4.900977,0.75945 7.345703,1.175781 14.020272,2.387134 27.909647,5.534476 41.621087,9.330079 0.64027,-0.374333 1.35186,-0.632512 2.10352,-0.669922 1.30197,-0.0648 2.54052,0.344818 3.94336,0.998047 1.41302,0.657976 2.66949,1.498712 3.74219,2.5 0.54235,0.163445 1.08716,0.318913 1.6289,0.484375 15.11744,4.616859 29.99648,10.026039 44.79492,15.662109 13.44955,5.12297 26.85641,10.43002 40.50196,15.14453 13.11041,4.53062 26.47291,8.47269 40.14258,11.06445 14.36897,2.72279 29.03869,3.89225 43.66015,3.36329 17.24237,-0.62635 34.34041,-3.53464 50.99024,-7.92969 1.04896,-0.27687 2.09499,-0.55964 3.14062,-0.84766 -1.01009,0.34719 -2.04016,0.69467 -3.08984,1.04297 -12.64337,4.19547 -30.46785,9.16077 -50.91602,11.18164 -13.18379,1.29467 -28.33227,1.40748 -44.94531,-0.69531 -13.2742,-1.68793 -26.95581,-4.64353 -41.88086,-8.78906 -14.14911,-3.92 -26.23512,-7.86172 -41.75,-12.65235 -12.19288,-3.75829 -25.65632,-7.7477 -39.32812,-11.13086 l -0.70899,2.03125 c -0.26047,0.74686 -0.44518,1.36527 -0.62305,1.96094 13.58523,3.3511 27.00391,7.32356 39.16407,11.06836 15.53444,4.79511 27.5913,8.7323 41.87304,12.69922 15.07525,4.20231 28.96053,7.20731 42.47071,8.94726 16.96123,2.16913 32.42837,2.06865 45.88086,0.76758 20.19109,-1.97644 37.74527,-6.72673 50.41992,-10.85156 -15.90869,6.3824 -32.67053,11.42099 -50.29688,14.27344 -15.41084,2.46733 -31.27782,3.15995 -47.19336,2.08789 -15.10349,-1.03519 -29.94747,-3.47195 -44.28711,-6.5293 -14.88503,-3.14746 -29.28629,-6.80025 -43.17968,-10.07031 -12.72352,-2.97866 -25.22908,-5.70795 -37.48633,-7.8457 -1.47367,1.13509 -3.24367,2.23079 -5.3457,3.33203 13.43624,2.18262 27.22719,5.15848 41.33007,8.45312 13.85863,3.25764 28.30413,6.92737 43.30664,10.11719 14.45978,3.1041 29.49903,5.59227 44.87696,6.68555 16.21392,1.12939 32.3934,0.45988 48.13086,-2.01758 18.51433,-2.95656 36.04881,-8.25317 52.61328,-14.97266 18.9332,-7.6806 36.70093,-17.0719 53.71484,-27.34765 1.17641,-0.59823 5.18441,-2.65381 4.58789,-2.34961 0.35652,-0.18181 0.52694,-0.26633 0.60938,-0.30664 0.0324,-0.0158 0.0397,-0.0208 0.041,-0.0215 3.4e-4,-1.7e-4 0.009,-0.004 0.01,-0.004 0.32606,-0.1392 0.54621,-0.48156 0.60937,-0.94921 -0.26763,0.33575 -0.53598,0.6724 -0.80468,1.00781 h -0.002 c 0,0 -0.10635,-0.32002 -0.1289,-0.38867 0.0814,-0.05 0.16279,-0.10034 0.24414,-0.15039 0.59852,-0.36495 0.69555,-1.4372 0.22265,-2.44532 -0.47284,-1.00799 -1.34985,-1.60137 -1.99609,-1.35546 -0.0159,0.006 -0.0314,0.011 -0.0469,0.0176 l -0.004,0.002 c -0.0852,0.0384 -0.1687,0.0769 -0.25391,0.11523 -0.51741,0.19404 -1.03486,0.38764 -1.55273,0.58008 -0.4197,0.12599 -2.60712,0.78465 -5.26758,1.55469 -2.65659,0.76891 -21.93539,6.48779 -43.19336,10.08398 -3.73187,0.63134 -7.79409,1.24845 -12.10937,1.79297 -12.79028,1.60888 -30.21578,2.90919 -48.5293,0.97852 -11.81483,-1.22156 -24.7985,-3.83897 -38.42774,-8.50586 -11.04127,-3.74556 -22.20842,-8.73534 -34.98632,-15.148442 -2.34446,-1.179927 -4.54561,-2.325442 -6.75977,-3.476562 v 1.53125 h -6.08984 c 3.71951,1.964337 7.46345,3.916344 11.47461,5.929684 13.02691,6.52331 24.37018,11.53765 35.57617,15.30664 14.08867,4.77428 27.40531,7.37807 39.36523,8.57618 17.02248,1.73107 33.07608,0.76293 45.30469,-0.61524 -15.10857,2.68843 -30.29265,4.07161 -45.19727,3.57617 -13.74881,-0.4392 -27.36732,-2.49195 -40.5332,-5.9414 -12.55755,-3.271 -24.89879,-7.87289 -37.22656,-13.0586 -10.15277,-4.28018 -20.36032,-9.00531 -30.71875,-13.773434 h -10.06641 c 0.0952,0.04341 0.19198,0.08548 0.28711,0.128906 13.2482,6.040078 26.14601,12.154698 39.125,17.619138 12.44761,5.23229 24.98513,9.88791 37.81641,13.2168 13.46349,3.50659 27.39418,5.58073 41.46875,6.00977 16.45551,0.51417 33.17249,-1.18215 49.70508,-4.37305 -16.25417,4.2537 -32.88146,7.06823 -49.58594,7.66797 -14.29586,0.51892 -28.65502,-0.62934 -42.72656,-3.29492 -13.3961,-2.53386 -26.56012,-6.42229 -39.55079,-10.90626 -13.52846,-4.67225 -26.8947,-9.96625 -40.3789,-15.10156 -10.00983,-3.81337 -20.08284,-7.52125 -30.25977,-10.966794 h -0.2832 v -0.04687 h -0.39258 V 97.593725 C 132.20276,96.013555 127.4965,94.484353 122.75977,93.037109 105.20299,87.674098 87.313624,83.356606 69.199219,80.271484 64.102477,79.4039 58.990055,78.639922 53.867188,77.960938 Z m 124.203122,1.417968 6.24024,8.072266 c 2.8341,1.520553 5.56796,2.984152 8.13476,4.367187 v -4.748047 c -4.18259,-2.255057 -8.5488,-4.606334 -13.57812,-7.273437 -0.25623,-0.136217 -0.53916,-0.281203 -0.79688,-0.417969 z m -37.08008,0.56836 v 4.533203 c 3.19277,1.302835 6.3653,2.627251 9.51758,3.972656 v -4.564453 c -3.14984,-1.334757 -6.32288,-2.648679 -9.51758,-3.941406 z m -85.292964,2.296875 c -0.219263,0.01252 -0.46628,0.0454 -0.746094,0.107421 -0.0033,7.35e-4 -0.0065,0.0012 -0.0098,0.002 0.721156,0.09841 1.441485,0.202546 2.16211,0.304687 -0.02888,-0.02704 -0.05439,-0.06453 -0.08398,-0.08789 -0.260265,-0.205424 -0.664477,-0.36373 -1.322265,-0.326171 z m 98.912114,3.416015 v 4.576172 c 5.4811,2.378327 10.91946,4.795035 16.30468,7.248047 l -4.93554,-6.828125 c -3.76224,-1.68577 -7.5515,-3.350366 -11.36914,-4.996094 z m 41.9375,3.621094 v 4.439453 h 8.32226 c -2.72714,-1.444069 -5.51,-2.925218 -8.32226,-4.439453 z M 20.060547,100.32812 c -5.276616,0.0419 -10.6329878,0.1758 -16.0722658,0.40626 -0.7051903,-0.003 -1.2847239,0.9717 -1.2832031,2.15429 0.00152,1.1827 0.5809997,2.10695 1.2773438,2.04492 9.7790661,-0.41759 19.2665101,-0.50676 28.5039061,-0.31836 -0.04656,-0.0832 -0.0905,-0.1784 -0.138672,-0.25 -0.276303,-0.41068 -0.323393,-0.42139 -0.345703,-0.43359 -0.02232,-0.0122 -0.249888,-0.0974 -0.910156,-0.17383 -1.450082,-0.16775 -2.806661,-0.68775 -3.736328,-1.74609 -0.433778,-0.49382 -0.736192,-1.06382 -0.939453,-1.67969 -2.108364,-0.0132 -4.220946,-0.0209 -6.355469,-0.004 z m 12.708984,0.0957 c 0.320129,0.0851 0.63474,0.19522 0.949219,0.36719 0.712679,0.38971 1.203601,0.99047 1.597656,1.57617 0.466595,0.69351 0.821138,1.48218 1.097656,2.33789 2.649982,0.0786 5.276402,0.18162 7.882813,0.30859 0.414883,-1.24838 0.852987,-2.69179 1.285156,-4.13086 -4.215726,-0.21644 -8.486776,-0.36877 -12.8125,-0.45898 z m 16.484375,0.66015 c -0.424594,1.43398 -0.852785,2.87557 -1.259765,4.13086 5.676427,0.32855 11.261514,0.75916 16.734375,1.3125 15.728082,1.57746 30.795587,4.10789 44.931644,7.18164 -0.0903,-0.68577 -0.21168,-1.33853 -0.375,-1.90625 -0.39572,-1.37554 -1.05686,-2.25477 -1.29102,-2.4082 h -0.002 l -0.082,-0.0547 -1.54883,0.58204 c -1.47325,0.55453 -2.5879,0.98639 -3.96875,0.64453 -0.69042,-0.17093 -1.33399,-0.61929 -1.74805,-1.11719 -0.41407,-0.4979 -0.666183,-1.02074 -0.902342,-1.58594 -0.06684,-0.15998 -0.117166,-0.32355 -0.173829,-0.48633 -10.939681,-2.0798 -22.348649,-3.80466 -34.132812,-4.99609 -5.299855,-0.53934 -10.698792,-0.96593 -16.181641,-1.29688 z m 63.210934,8.95313 c 0.0884,0.25715 0.18446,0.50684 0.26172,0.77539 0.32716,1.13723 0.52317,2.40244 0.60742,3.72266 0.89101,0.2019 1.79264,0.39758 2.67579,0.60351 0.675,0.15707 1.34866,0.32573 2.02343,0.48633 0.20869,-0.70301 0.43245,-1.4426 0.73242,-2.30273 l 0.5918,-1.69532 c -0.70678,-0.16888 -1.41186,-0.34462 -2.11914,-0.50976 -1.57544,-0.36846 -3.17365,-0.72461 -4.77344,-1.08008 z m -53.484371,15.17578 c -2.001893,0.8105 -4.275852,1.22802 -7.21875,1.375 -2.651477,0.13242 -4.580509,0.0165 -6.496094,-0.43359 -0.868926,-0.20416 -1.786436,-0.51212 -2.685547,-0.84766 -0.523341,0.0143 -1.047012,0.0227 -1.570312,0.0391 1.871626,0.73552 3.694746,1.67975 5.27539,2.71094 0.658019,0.42928 1.253915,0.8641 1.816406,1.30664 4.244711,-0.0552 8.48978,-0.0504 12.732422,0.043 0.578952,0.0117 1.160612,0.0361 1.740235,0.0508 0.0044,-0.008 0.0094,-0.0199 0.01367,-0.0273 0.164151,-0.2844 0.311106,-0.42321 0.441406,-0.54297 0.260601,-0.23951 0.48527,-0.37761 0.736328,-0.52344 0.502114,-0.29165 1.095322,-0.55887 1.769531,-0.80469 1.67994,-0.61254 2.678848,-1.24474 3.353516,-2.0625 -2.453954,-0.10602 -4.904351,-0.19445 -7.347656,-0.24804 -0.853497,-0.0202 -1.706994,-0.0211 -2.560547,-0.0352 z m -24.085938,0.37695 c -1.206521,0.0564 -2.412992,0.11052 -3.61914,0.17774 -0.002,0.008 -0.0018,0.0172 -0.0039,0.0254 -0.135836,0.54121 -0.307744,0.76803 -0.498046,1.07031 -0.190303,0.30229 -0.411764,0.61306 -0.664063,0.94336 -0.504599,0.66061 -1.128398,1.39664 -1.777344,2.11328 -0.06991,0.0772 -0.140674,0.14814 -0.210937,0.22461 1.136116,-0.0728 2.271831,-0.15349 3.408203,-0.2168 0.783154,-1.20175 1.825419,-2.59622 2.890625,-3.80078 l 0.474609,-0.53711 z m 38.019531,0.10157 c -0.02155,0.0498 -0.03809,0.10095 -0.06055,0.15039 -0.746843,1.64417 -2.10271,2.86814 -3.804688,3.84179 8.767667,0.38765 17.603446,1.10908 26.480469,2.14453 l 0.306641,-0.10351 c 2.349109,-0.8 4.491466,-1.93184 6.363286,-3.26953 -9.810625,-1.29944 -19.584404,-2.23415 -29.285162,-2.76367 z m -45.988281,0.3457 c -2.799129,0.18562 -5.596457,0.39382 -8.392578,0.63477 -0.57175,0.75489 -1.333847,1.33278 -2.234375,1.58789 -1.639627,0.46448 -3.390674,0.0646 -5.121094,-0.85547 l -0.06055,-0.0332 c -0.289,0.0298 -0.578233,0.0575 -0.867188,0.0879 -0.6110484,0.82585 -1.3476562,2.53736 -1.3476562,3.79883 0,0.24249 6.334e-4,0.39223 0.00195,0.55078 2.9889822,-0.32608 5.9800152,-0.62943 8.9726562,-0.89453 0.03301,-0.22308 0.0679,-0.44281 0.121094,-0.66015 0.130624,-0.53368 0.350063,-1.30723 1.25,-1.79102 0.899938,-0.48377 1.765993,-0.20392 2.271484,0.0254 0.50549,0.22932 0.92223,0.50907 1.435547,0.85742 0.231705,0.15724 0.415011,0.23644 0.576172,0.30664 0.130896,-0.10845 0.262113,-0.2157 0.441406,-0.38281 0.493675,-0.46014 1.112876,-1.09582 1.707032,-1.75195 0.466758,-0.51545 0.870362,-1.01144 1.246093,-1.48047 z m 10.667969,1.90234 -0.490234,0.55664 h -0.002 c -0.330277,0.37341 -0.660154,0.79811 -0.988281,1.21485 1.822798,-0.0806 3.645675,-0.15005 5.46875,-0.20508 -1.035979,-0.50727 -2.110835,-0.95667 -3.152343,-1.29492 l -0.835938,-0.27149 z m -31.7246094,0.0137 c -0.6991537,0.0802 -1.3988001,0.15292 -2.0976562,0.23633 -0.2196342,1.15845 -0.2386828,2.52938 -0.00195,3.89258 0.01779,0.10244 0.051816,0.20074 0.072266,0.30274 0.5166924,-0.0622 1.0339493,-0.11732 1.5507812,-0.17774 -0.037817,-0.30936 -0.070312,-0.62052 -0.070312,-0.94922 10e-8,-1.12769 0.1897335,-2.25244 0.546875,-3.30469 z m 101.2441394,1.18165 c -1.41664,1.32302 -3.03361,2.51387 -4.79883,3.54296 1.84116,0.24696 3.68353,0.50818 5.52735,0.78125 0.75993,-0.67142 1.69446,-1.09133 3.07031,-1.77929 1.05997,-0.53002 1.97709,-1.03495 2.83398,-1.53125 -0.73648,-0.11859 -1.47633,-0.24563 -2.21093,-0.35938 -1.47504,-0.22972 -2.9481,-0.44091 -4.42188,-0.65429 z"
       transform="translate(4.6041452,-25.723317)"
       id="path5173" />
    <path
       style="display:inline;opacity:1;fill:#8fcc66;fill-opacity:1"
       d="m 107.80394,-23.933047 c -1.89393,0.01 -3.78712,0.130267 -3.92407,0.351862 -0.12167,0.196855 -0.73501,0.358589 -1.36317,0.358852 -1.75331,7.03e-4 -8.114198,1.637454 -11.609096,2.987325 -4.258118,1.644654 -10.033179,4.570374 -13.615401,6.897413 -1.630837,1.059407 -3.081809,1.927093 -3.222676,1.927081 -0.140866,0 -0.714812,-0.577096 -1.276954,-1.281613 -1.508704,-1.890843 -2.974783,-2.652913 -5.100823,-2.654106 -1.299694,-9.54e-4 -2.175357,0.231039 -3.040921,0.806252 -1.474813,0.980091 -2.826541,3.521339 -2.826541,5.3128722 v 1.3142363 l 1.23967,0.2330201 c 3.028402,0.5681262 3.192587,2.9212581 0.494004,7.12810466 -2.346805,3.65846564 -4.189103,7.87801234 -6.580505,15.08110074 -1.043952,3.144457 -2.07465,5.774549 -2.290594,5.846491 -0.215944,0.07198 -1.151057,-0.713729 -2.078545,-1.745326 -0.927489,-1.031584 -2.333185,-2.168673 -3.124807,-2.528275 -4.157733,-1.888731 -7.806195,0.533495 -7.806195,5.184711 0,3.447496 1.705612,5.286799 3.553566,3.833191 1.119316,-0.880447 2.530983,-0.950234 3.628132,-0.181756 1.294045,0.906384 1.07357,3.08822 -0.68042,6.74362 -1.835463,3.82522 -2.119274,5.785317 -1.090537,7.528899 0.592997,1.005063 0.701139,1.624139 0.533618,3.038591 -0.168738,1.424723 -0.05775,2.031047 0.554589,3.068883 0.419801,0.711509 0.761978,1.477939 0.761978,1.703381 0,0.449344 -2.131873,2.770617 -2.544587,2.770617 -0.141167,-1e-6 -0.604835,-1.087648 -1.032281,-2.416426 -1.001191,-3.112363 -1.776566,-4.340096 -3.996306,-6.335833 -1.974851,-1.775569 -3.875846,-2.209384 -4.534583,-1.032281 -0.228686,0.408637 -1.087464,0.687333 -2.733334,0.885478 -4.087322,0.492056 -6.000282,2.302672 -6.000282,5.678715 -1e-6,2.018728 0.866555,3.820692 2.111167,4.38778 l 0.922762,0.419438 0.761978,-0.927423 c 1.043526,-1.268873 2.062205,-1.733674 3.798238,-1.733674 3.894139,0 6.133446,3.549759 7.330831,11.613753 0.609026,4.101546 0.724893,11.536241 0.193407,12.368739 -0.278657,0.436483 -0.652733,0.183825 -1.999317,-1.35152 -2.851988,-3.251773 -5.202274,-3.829622 -7.475305,-1.833872 l -1.265303,1.111508 v 1.731344 c 0,2.410137 1.066699,3.62557 3.425405,3.898437 1.460191,0.168914 1.864903,0.390096 2.535266,1.386474 1.174542,1.745754 1.6807,4.743274 1.433077,8.479623 -0.249882,3.770375 -1.010407,6.596552 -2.02262,7.512588 -0.623703,0.564432 -0.904286,0.598339 -2.092526,0.242341 -0.754835,-0.226157 -1.651223,-0.71853 -1.989996,-1.092866 l -0.615176,-0.680421 0.55692,-1.335208 c 0.792771,-1.897369 0.71774,-4.168911 -0.174765,-5.303552 -1.408157,-1.790184 -4.58389,-1.997926 -6.086502,-0.398465 -0.802404,0.854116 -0.803311,0.867866 -0.107185,4.187381 0.129273,0.616469 -0.01086,1.31854 -0.377495,1.878147 l -0.587211,0.8948 h -4.229327 c -4.869037,0 -7.042299,0.571912 -10.23893,2.693717 -1.9260728,1.278453 -3.9095356,3.631502 -4.790906,5.685708 -1.5089817,3.51701 -0.5348528,9.12798 2.1065073,12.12873 1.7876257,2.03084 5.0929537,3.72749 8.3491327,4.28525 4.666373,0.79932 10.703023,-0.75235 13.813468,-3.54891 2.200173,-1.97814 3.260376,-2.39815 4.26894,-1.69173 0.886374,0.62085 0.987716,1.6472 0.2237,2.28128 -0.782334,0.64927 -0.661944,1.28086 0.405455,2.12048 1.141898,0.89821 3.552284,0.99289 4.707019,0.18409 1.140719,-0.799 1.866496,-2.39751 1.866496,-4.10583 0,-1.14401 -0.229416,-1.70443 -1.01364,-2.48865 -0.944439,-0.94443 -3.026237,-1.78949 -4.422733,-1.79427 -0.332881,-10e-4 -0.711369,-0.17118 -0.838875,-0.37749 -0.255218,-0.41295 1.799646,-3.5651 3.786587,-5.81154 l 1.267633,-1.4354 1.952713,0.63381 c 4.398212,1.42838 9.070835,4.47718 10.194657,6.65041 1.002325,1.93829 0.847811,2.24367 -2.295254,4.58352 l -0.852856,0.63614 0.633816,1.33288 c 0.348123,0.73362 1.086216,1.56824 1.640466,1.85485 1.188158,0.61443 3.298128,0.6809 4.317874,0.13515 1.192739,-0.63834 2.076707,-3.09265 2.085536,-5.78823 0.0056,-1.73181 0.139271,-2.41642 0.470701,-2.41642 0.254302,0 2.066272,0.65911 4.026598,1.46336 8.328404,3.41685 19.825151,6.95225 26.827676,8.24893 h 0.0024 c 2.890079,0.5349 4.714333,0.62843 9.483937,0.48935 10.07243,-0.29371 14.7693,-1.68908 15.75687,-4.68139 0.35645,-1.08007 0.32965,-1.37055 -0.18875,-1.94339 -0.33503,-0.37021 -1.07729,-0.77423 -1.64746,-0.89946 -1.77733,-0.39037 -1.15977,-1.17699 2.27429,-2.89411 6.01004,-3.00517 9.03702,-5.60429 10.64205,-9.141405 1.33885,-2.950477 0.65428,-5.061784 -1.80125,-5.552885 -0.58851,-0.117708 -1.15338,-0.349021 -1.25598,-0.514977 -0.1026,-0.165943 0.41816,-2.03773 1.15811,-4.159419 l 1.34452,-3.856493 0.0119,-3.758624 0.014,-3.758625 -0.96237,-1.822222 c -1.14942,-2.17836 -2.99182,-3.873521 -5.45735,-5.021596 -2.55277,-1.188688 -3.96153,-1.118273 -5.24995,0.260983 -0.57112,0.611387 -1.03695,1.242568 -1.03695,1.402784 0,0.160217 -0.7826,0.549399 -1.73833,0.866838 -2.43802,0.809782 -4.93794,2.47952 -5.77891,3.858823 -0.83776,1.374055 -0.92069,3.387562 -0.20972,5.089173 0.80923,1.936752 1.55614,2.121629 4.33885,1.074225 l 2.4001,-0.90412 0.84353,0.55459 c 1.72481,1.130143 2.82581,4.955618 2.59587,9.024892 -0.38313,6.780468 -6.64851,13.597598 -15.15801,16.495538 l -2.863817,0.97403 -7.694344,-0.0233 c -5.546985,-0.0172 -8.684875,-0.19483 -11.24092,-0.63615 -3.909555,-0.67502 -10.303369,-2.69327 -10.495253,-3.31355 -0.06719,-0.21722 0.846166,-0.74758 2.02961,-1.17909 2.646875,-0.96509 4.214491,-2.24362 5.075191,-4.138445 1.273268,-2.803096 0.50848,-6.659928 -1.656777,-8.363114 -2.009931,-1.581015 -5.495136,-1.849677 -6.818187,-0.526626 -0.439973,0.439979 -0.551155,1.106588 -0.45905,2.756634 l 0.12117,2.17641 -1.736004,1.162774 c -2.412491,1.616032 -4.829054,2.284925 -9.001591,2.493317 -2.560698,0.127885 -4.267196,0.01754 -5.997953,-0.389142 -2.357221,-0.553857 -5.739791,-2.027377 -6.140096,-2.675081 -0.109619,-0.177361 0.624668,-2.07201 1.633476,-4.210676 3.025951,-6.415009 4.706443,-10.997098 7.067518,-19.282464 1.234154,-4.33083 2.512102,-8.438427 2.840522,-9.127423 0.690045,-1.447654 1.804781,-1.778512 3.110827,-0.922761 1.131725,0.741538 1.894465,0.711141 3.278602,-0.132823 1.411163,-0.86045 1.999317,-1.916699 1.999317,-3.588518 0,-3.001731 -1.931678,-4.526169 -4.900426,-3.868145 -1.931149,0.428048 -2.355839,0.179287 -2.355839,-1.384143 0,-0.731481 -0.260341,-2.264386 -0.580221,-3.404432 l -0.582552,-2.071555 1.1185,-1.274623 c 1.181844,-1.346053 1.442359,-2.83648 0.729355,-4.168741 -0.312518,-0.583945 -0.244091,-0.878532 0.34254,-1.502983 1.099193,-1.170028 1.845188,-3.244041 2.083205,-5.792896 0.285266,-3.054845 1.096919,-4.301401 3.49997,-5.364137 2.923576,-1.292949 3.543248,-3.160946 1.649788,-4.974992 -1.027051,-0.983982 -2.197407,-1.127692 -4.322535,-0.533617 -1.574722,0.440217 0.05885,-7.395068 2.654107,-12.729922 2.601587,-5.3478714 6.257969,-9.4457481 10.231939,-11.47161009 1.591415,-0.81127302 6.210822,-1.16027707 6.97431,-0.52662773 0.297281,0.24671414 0.540609,0.80445226 0.540609,1.23967084 0,0.43523048 0.101721,0.89398348 0.22603,1.01829978 0.324548,0.3245379 1.55971,-0.3780528 2.905769,-1.65211615 0.925697,-0.87618774 1.162773,-1.38605645 1.162773,-2.49798215 0,-1.4206554 -0.915396,-2.6151054 -3.25996,-4.250298 -1.136339,-0.792518 -0.724485,-1.4535327 2.104177,-3.3904516 5.196087,-3.5580099 10.836399,-4.4624309 17.06643,-2.7333339 3.01019,0.835457 5.27508,3.0614354 6.11214,6.0049454 0.80002,2.8132725 1.34985,3.400965 3.1784,3.3997719 1.81639,-0.00167 3.69473,-1.0984846 4.00563,-2.3371986 0.37762,-1.5045506 -0.0851,-3.6953922 -1.10453,-5.2359747 -1.24618,-1.883112 -0.98925,-2.610464 0.80393,-2.274282 2.898,0.54331 4.13273,1.949921 4.56022,5.1963611 0.39085,2.9681933 1.29377,3.6206084 2.91042,2.1018472 1.1503,-1.0806554 1.92243,-0.6561279 1.92243,1.0579144 0,1.1255624 -0.28775,1.7189135 -1.50066,3.0968452 l -1.50066,1.70338107 0.96472,0.70372288 c 2.08576,1.51938165 -0.52986,1.88144015 -3.3322,0.46138135 -0.97119,-0.49213979 -1.84819,-0.8947996 -1.94805,-0.8947996 -0.1,0 -0.42669,0.4771298 -0.72703,1.0579144 -1.13708,2.1988685 -0.44851,5.2162568 1.57988,6.9230452 1.32507,1.114968 2.11232,1.1863981 4.41109,0.4031263 6.39904,-2.180376 9.56917,-11.6602215 6.55952,-19.6133545 -2.40181,-6.346861 -8.32717,-11.299545 -14.62438,-12.224267 -0.93748,-0.137656 -1.7915,-0.39443 -1.89912,-0.56857 -0.13606,-0.220163 -2.03014,-0.31988 -3.92406,-0.309918 z m -85.131795,121.149804 2.304576,0.03257 c 2.696854,0.0371 8.228116,0.787507 8.910712,1.209375 0.296339,0.183148 0.390801,0.622387 0.251663,1.176757 -0.262244,1.044851 -4.623873,5.861261 -5.583177,6.165731 -0.403172,0.12796 -1.190573,-0.14632 -2.001648,-0.69673 -1.957313,-1.32826 -2.185023,-1.20493 -2.411765,1.29559 -0.238596,2.63131 -0.966016,3.76001 -3.129467,4.86548 -0.866825,0.44292 -2.071837,0.80625 -2.677409,0.80625 -1.676897,0 -4.150828,-1.43384 -5.452685,-3.15977 -0.964477,-1.27865 -1.167433,-1.86772 -1.167433,-3.37647 0,-2.10365 1.040717,-4.55831 2.379141,-5.611132 l 0.883149,-0.696739 1.642796,0.873841 c 2.927084,1.55634 5.261485,0.89513 5.790564,-1.640469 l 0.260983,-1.244332 z"
       id="path4279" />
    <path
       d="m 156.6425,44.118672 5.76813,-7.249962 13.57462,-14.499924 h 14.91906 L 171.6483,43.052509 192.07529,70.04795 h -15.26602 l -13.96495,-19.319024 -5.68138,4.477926 V 70.04795 H 143.93527 V 3.6894877 h 13.22767 V 33.286387 l -0.69391,10.832285 h 0.17356 z"
       id="path4199"
       style="font-style:normal;font-variant:normal;font-weight:bold;font-stretch:normal;font-size:49.9994px;line-height:125%;font-family:'Open Sans';-inkscape-font-specification:'Open Sans, Bold';text-align:start;letter-spacing:0px;word-spacing:0px;writing-mode:lr-tb;text-anchor:start;fill:#808080;fill-opacity:1;stroke:none;stroke-width:1.76157px;stroke-linecap:butt;stroke-linejoin:miter;stroke-opacity:1" />
    <path
       d="M 212.3288,70.04795 H 199.10113 V 3.6894877 h 13.22767 z"
       id="path4201"
       style="font-style:normal;font-variant:normal;font-weight:bold;font-stretch:normal;font-size:49.9994px;line-height:125%;font-family:'Open Sans';-inkscape-font-specification:'Open Sans, Bold';text-align:start;letter-spacing:0px;word-spacing:0px;writing-mode:lr-tb;text-anchor:start;fill:#808080;fill-opacity:1;stroke:none;stroke-width:1.76157px;stroke-linecap:butt;stroke-linejoin:miter;stroke-opacity:1" />
    <path
       d="m 225.59983,10.043865 q 0,-6.3543773 7.19931,-6.3543773 7.19933,0 7.19933,6.3543773 0,3.027912 -1.82152,4.733785 -1.77815,1.663232 -5.37781,1.663232 -7.19931,0 -7.19931,-6.397017 z M 239.39129,70.04795 H 226.16363 V 22.368786 h 13.22766 z"
       id="path4203"
       style="font-style:normal;font-variant:normal;font-weight:bold;font-stretch:normal;font-size:49.9994px;line-height:125%;font-family:'Open Sans';-inkscape-font-specification:'Open Sans, Bold';text-align:start;letter-spacing:0px;word-spacing:0px;writing-mode:lr-tb;text-anchor:start;fill:#808080;fill-opacity:1;stroke:none;stroke-width:1.76157px;stroke-linecap:butt;stroke-linejoin:miter;stroke-opacity:1" />
    <path
       d="M 297.98333,70.04795 H 284.75568 V 42.199564 q 0,-5.160258 -1.86488,-7.719075 -1.8649,-2.601458 -5.94162,-2.601458 -5.55128,0 -8.02332,3.667639 -2.47207,3.624964 -2.47207,12.069045 V 70.04795 H 253.22614 V 22.368786 h 10.10506 l 1.77815,6.098501 h 0.73727 q 2.21184,-3.454385 6.07173,-5.202916 3.90323,-1.79117 8.84734,-1.79117 8.45704,0 12.83733,4.520566 4.38031,4.477926 4.38031,12.964648 z"
       id="path4205"
       style="font-style:normal;font-variant:normal;font-weight:bold;font-stretch:normal;font-size:49.9994px;line-height:125%;font-family:'Open Sans';-inkscape-font-specification:'Open Sans, Bold';text-align:start;letter-spacing:0px;word-spacing:0px;writing-mode:lr-tb;text-anchor:start;fill:#808080;fill-opacity:1;stroke:none;stroke-width:1.76157px;stroke-linecap:butt;stroke-linejoin:miter;stroke-opacity:1" />
    <path
       d="m 353.88648,22.368786 v 6.610271 l -7.58965,1.919109 q 2.08173,3.198508 2.08173,7.164664 0,7.676417 -5.46453,11.983747 -5.42118,4.26469 -15.09255,4.26469 l -2.38533,-0.127869 -1.95162,-0.213236 q -2.03835,1.535276 -2.03835,3.411745 0,2.814694 7.28606,2.814694 h 8.24017 q 7.97997,0 12.14343,3.369087 4.20684,3.369104 4.20684,9.894077 0,8.358766 -7.11259,12.96463 -7.06921,4.605865 -20.34024,4.605865 -10.14844,0 -15.52625,-3.497043 -5.33443,-3.454403 -5.33443,-9.723482 0,-4.30733 2.73228,-7.207304 2.73226,-2.899992 8.02333,-4.136751 -2.03835,-0.852928 -3.5563,-2.772037 -1.51792,-1.961766 -1.51792,-4.136751 0,-2.729396 1.60467,-4.520566 1.60467,-1.833811 4.64052,-3.582324 -3.81651,-1.620592 -6.0717,-5.202915 -2.21184,-3.582341 -2.21184,-8.444081 0,-7.804356 5.16094,-12.069045 5.16097,-4.26469 14.7456,-4.26469 2.03837,0 4.81401,0.383832 2.819,0.341175 3.59965,0.511753 h 16.91407 z m -37.42779,54.417356 q 0,2.686756 2.60217,4.222032 2.64553,1.535294 7.3728,1.535294 7.11256,0 11.14592,-1.919109 4.03335,-1.919108 4.03335,-5.245555 0,-2.686756 -2.3853,-3.710279 -2.38532,-1.023524 -7.3728,-1.023524 h -6.85237 q -3.64302,0 -6.11509,1.663233 -2.42868,1.705872 -2.42868,4.477908 z m 4.814,-38.80861 q 0,3.880857 1.77814,6.14114 1.82152,2.260284 5.50792,2.260284 3.72978,0 5.46455,-2.260284 1.73478,-2.260283 1.73478,-6.14114 0,-8.61466 -7.19933,-8.61466 -7.28606,0 -7.28606,8.61466 z"
       id="path4207"
       style="font-style:normal;font-variant:normal;font-weight:bold;font-stretch:normal;font-size:49.9994px;line-height:125%;font-family:'Open Sans';-inkscape-font-specification:'Open Sans, Bold';text-align:start;letter-spacing:0px;word-spacing:0px;writing-mode:lr-tb;text-anchor:start;fill:#808080;fill-opacity:1;stroke:none;stroke-width:1.76157px;stroke-linecap:butt;stroke-linejoin:miter;stroke-opacity:1" />
    <path
       d="m 382.25006,60.537705 q 3.46955,0 8.32692,-1.492636 v 9.680824 q -4.94411,2.174985 -12.14344,2.174985 -7.93658,0 -11.57962,-3.923498 -3.59966,-3.966155 -3.59966,-11.855826 V 32.134908 h -6.33193 v -5.501432 l 7.28606,-4.34997 3.8165,-10.064656 h 8.45704 v 10.149936 h 13.57461 v 9.766122 h -13.57461 v 22.986646 q 0,2.772036 1.56129,4.094094 1.60467,1.322057 4.20684,1.322057 z"
       id="path4209"
       style="font-style:normal;font-variant:normal;font-weight:bold;font-stretch:normal;font-size:49.9994px;line-height:125%;font-family:'Open Sans';-inkscape-font-specification:'Open Sans, Bold';text-align:start;letter-spacing:0px;word-spacing:0px;writing-mode:lr-tb;text-anchor:start;fill:#808080;fill-opacity:1;stroke:none;stroke-width:1.76157px;stroke-linecap:butt;stroke-linejoin:miter;stroke-opacity:1" />
    <path
       id="path5043"
       style="font-style:normal;font-variant:normal;font-weight:bold;font-stretch:normal;font-size:medium;line-height:125%;font-family:'Open Sans';-inkscape-font-specification:'Open Sans, Bold';text-align:start;letter-spacing:0px;word-spacing:0px;writing-mode:lr-tb;text-anchor:start;display:inline;fill:#7f7f7f;fill-opacity:1;stroke:none;stroke-width:1px;stroke-linecap:butt;stroke-linejoin:miter;stroke-opacity:1"
       d="m 156.52393,44.072096 5.8922,-7.249962 13.86661,-14.499924 h 15.23997 l -19.6702,20.683723 20.86636,26.995441 h -15.59439 l -14.26532,-19.319024 -5.80359,4.477926 v 14.841098 h -13.5122 V -2.9989472 l 13.5122,6.6418587 V 33.239811 l -0.70884,10.832285 h 0.17729 z" />
  </g>
</svg>
