<?xml version="1.0" encoding="UTF-8" standalone="no"?>
<!-- Created with Inkscape (http://www.inkscape.org/) -->

<svg
   width="186.79584mm"
   height="143.40416mm"
   viewBox="0 0 186.79584 143.40416"
   version="1.1"
   id="svg5"
   xmlns="http://www.w3.org/2000/svg"
   xmlns:svg="http://www.w3.org/2000/svg">
  <defs
     id="defs2">
    <rect
       x="610.64526"
       y="208.21115"
       width="622.2691"
       height="143.36612"
       id="rect21861" />
  </defs>
  <g
     id="layer2">
    <path
       id="path17811"
       style="display:inline;fill:#000000;stroke-width:0.178042"
       d="M 6.3233893,63.591305 V 76.16072 88.729791 l 4.6736267,-0.0685 4.673625,-0.06885 1.157286,-0.546301 c 5.293243,-2.497477 5.584899,-9.697259 0.491358,-12.127444 -1.204934,-0.574874 -1.212559,-0.601339 -0.390864,-1.322802 2.399997,-2.107223 2.200786,-7.417699 -0.355739,-9.482523 -1.635986,-1.321335 -2.515228,-1.51735 -6.8219651,-1.519974 z m 1.6914071,1.691407 2.6706446,3.56e-4 c 3.066792,5.19e-4 3.710539,0.198841 5.054754,1.556488 0.923836,0.933075 1.14787,1.729057 1.052263,3.739246 -0.11217,2.358444 -1.555667,3.983898 -3.812277,4.293205 C 11.443207,75.08267 8.1009906,75.007997 8.0061023,74.760726 7.9584597,74.636714 7.940964,72.453465 7.9671406,69.90906 Z M 33.289245,66.26195 c -1.618584,0.06837 -1.526576,1.875968 -0.868462,2.481493 0.602639,0.554478 1.663024,0.296522 2.038075,-0.27743 0.447875,-0.685394 0.35668,-2.268536 -1.169613,-2.204063 z M 27.251439,66.303 c -1.508865,0.004 -1.716669,1.574717 -1.057861,2.392366 0.43179,0.495618 1.629875,0.515072 2.114928,-0.123945 0.477893,-0.629575 0.320988,-2.271906 -1.057067,-2.268421 z m 63.2668,6.639053 c -0.692305,0.01407 -1.760953,0.235771 -1.760953,0.43155 0,0.06117 -0.235535,0.250399 -0.523349,0.420418 -0.287807,0.170014 -0.573467,0.467914 -0.634972,0.661748 -0.190443,0.600042 -0.444066,0.388772 -0.444066,-0.369997 v -0.722606 l -0.756683,0.05492 -0.756683,0.05457 -0.04657,7.388787 c -0.02565,4.063773 -0.0572,7.826165 -0.0572,7.826165 0.566886,0.0087 1.033744,0.0078 1.617123,0.0078 v -4.926085 c 0,-7.888541 0.702405,-9.711255 3.55669,-9.229021 0.586885,0.09915 0.719611,0.05268 1.050176,-0.367562 0.478499,-0.608331 0.482294,-0.96707 0.01043,-0.96707 -0.202285,0 -0.535541,-0.08981 -0.740687,-0.199602 -0.09364,-0.05014 -0.282497,-0.06868 -0.513269,-0.064 z m -15.788097,0.02611 c -0.555225,-0.0046 -1.120854,0.05591 -1.688622,0.187085 -7.420682,1.714339 -7.988585,12.95829 -0.785551,15.55129 3.006216,1.082193 7.127114,-0.278568 8.781834,-2.899809 0.549841,-0.871006 0.529627,-1.053207 -0.158224,-1.444859 -0.569525,-0.324314 -0.578097,-0.323921 -0.844311,0.06399 -1.545834,2.252459 -3.136318,3.102666 -5.588883,2.987437 C 71.27655,87.264372 68.6256,84.68627 68.85055,81.971509 l 0.05491,-0.66488 6.543083,-0.0466 6.543075,-0.04694 v -0.948631 c 0,-4.075194 -3.374921,-7.265406 -7.261509,-7.296285 z m -29.316934,0.0046 c -0.851874,0.01278 -1.615381,0.33477 -2.274215,0.961506 -0.827851,0.787511 -0.803034,0.785875 -0.897868,0.0692 -0.06534,-0.493788 -0.128608,-0.534774 -0.90204,-0.585244 l -0.831445,-0.05423 v 7.665586 7.665586 h 0.801191 c 0.973315,0 0.876422,0.633344 0.883958,-5.786397 0.0067,-5.535401 0.09026,-6.192196 0.935417,-7.344622 0.636857,-0.868394 1.346576,-1.169545 2.435574,-1.033481 0.871543,0.108892 0.925371,0.09082 1.221617,-0.410683 0.448493,-0.759253 0.398373,-0.866671 -0.49136,-1.056434 -0.302993,-0.0646 -0.596864,-0.09501 -0.880829,-0.09077 z m 11.004934,0.0028 c -2.032968,-0.03271 -4.131968,0.707298 -5.578097,2.199804 -3.757347,3.877839 -2.692898,10.806656 2.028715,13.20613 1.460837,0.742376 4.620802,0.830333 6.015209,0.16761 0.914786,-0.434773 2.45756,-1.543544 2.688034,-1.932045 0.413932,-0.697743 0.478747,0.461245 0.476055,8.542929 -0.0021,6.972199 -0.0525,8.797009 -0.268803,9.737429 -1.48569,6.45932 -9.350826,6.35026 -11.765096,-0.16309 -0.39466,-1.06475 -0.531861,-1.26125 -0.87943,-1.26125 -0.755398,0 -0.972341,0.40996 -0.67462,1.27411 1.342914,3.89784 3.431344,5.72085 7.181182,6.26836 0.244814,0.0357 0.530549,0.0757 0.634972,0.089 2.129739,0.27199 5.232417,-1.73965 6.440495,-4.17566 0.944514,-1.9046 0.961458,-2.25472 0.90204,-18.500461 l -0.05457,-14.955611 -0.756684,-0.05492 -0.756683,-0.05457 v 1.078346 c 0,1.257058 -0.07829,1.295327 -0.899946,0.439543 -1.196693,-1.246385 -2.938951,-1.876749 -4.73275,-1.905616 z m -22.320049,0.388771 v 5.686597 c 0,0 0.09236,3.704485 0,5.686944 -0.0216,0.46335 -0.20707,0.893064 -0.516162,1.199584 -0.899671,0.892182 -1.444265,1.537479 -3.504061,1.473146 -1.46894,-0.04586 -1.678419,-0.09732 -2.29126,-0.565075 -1.353145,-1.032816 -1.425772,-1.413325 -1.491114,-7.808857 l -0.05773,-5.652863 h -0.796325 -0.795983 l 0.02645,5.826038 c 0.02415,5.337692 0.05559,5.90093 0.376949,6.721124 0.564714,1.44131 1.727859,2.44259 3.343172,2.878245 h 3.57e-4 c 2.444954,0.659399 5.268062,-0.126913 6.398424,-1.781821 0.957415,-1.401681 0.993927,-1.690875 0.996619,-7.85719 l 0.0021,-5.697376 -0.845704,-0.05423 z m 21.855472,1.098863 c 0.837796,-0.0218 1.723472,0.155645 2.625438,0.5769 4.62994,2.162389 4.789099,9.536508 0.25663,11.886804 -2.352737,1.22 -5.859052,0.375675 -7.332447,-1.765826 -3.204612,-4.657746 -0.07376,-10.5803 4.450379,-10.697878 z m 18.804745,0.08067 c 2.309563,0.03937 4.567877,1.417254 5.378152,4.109593 0.136616,0.453876 0.206734,0.892128 0.15613,0.974023 -0.0506,0.08189 -2.615411,0.153923 -5.699457,0.160651 -6.314586,0.01326 -6.055937,0.07554 -5.521768,-1.323151 1.016325,-2.661197 3.37738,-3.960488 5.686943,-3.921116 z m -65.0315894,2.0475 c 1.9785284,-0.0021 5.3660994,0.178377 5.9439204,0.368605 4.985558,1.641261 4.618637,8.519577 -0.52752,9.890076 -0.934313,0.248819 -6.8703209,0.352934 -7.0987633,0.124491 -0.065272,-0.06528 -0.1185816,-2.387476 -0.1185816,-5.160117 v -5.040841 l 0.4482376,-0.112667 c 0.1901533,-0.04772 0.6932001,-0.06882 1.3527069,-0.06955 z M 41.645094,95.528601 c -2.811958,0.04744 -5.697014,1.539866 -6.942627,4.172879 -0.683455,1.44469 -0.772953,2.52242 -0.799803,9.64701 -0.0089,3.35587 0.05127,1.09755 0.05127,10.08258 l -1.873809,0.0427 c 0,0 0.0014,0.6247 0.0014,1.44211 0,0 -0.99489,-0.0108 1.724858,-0.0108 l -0.0069,14.00461 c 2.282473,0 1.710694,0.0111 1.710694,0.0111 l -0.07657,-13.85764 1.869454,-0.0265 1.869448,-0.0265 0.05457,-0.75042 0.05423,-0.75077 c -1.282575,-0.034 0.0701,-0.009 -3.847747,-0.009 l -0.05114,-7.83747 c -0.06876,-10.40768 0.06137,-11.20264 2.143816,-13.102498 1.252705,-1.142884 2.440319,-1.574756 4.316845,-1.570046 2.900891,0.0075 4.384319,1.318085 5.775618,5.102734 0.251503,0.68413 1.435126,0.54904 1.435126,-0.16379 0,-0.5788 -1.587179,-3.610987 -2.28813,-4.371432 C 45.45869,96.13987 43.56917,95.495928 41.645189,95.528362 Z M 8.0600031,109.55331 c -1.1582876,-0.0232 -2.3944857,0.11669 -2.8938921,0.39051 -0.2937692,0.16107 -0.6230214,0.2933 -0.7316505,0.29384 -0.1086091,5.3e-4 -0.5662945,0.32576 -1.0171363,0.72259 -2.50423195,2.20434 -2.76899837,6.43432 -0.5362149,8.56521 0.7728601,0.73758 0.9152967,0.82095 5.0060682,2.93283 4.8464985,2.50203 5.4723055,3.13114 5.4636925,5.49151 -0.0041,1.19623 -0.08271,1.57686 -0.481271,2.34064 -2.326601,4.45855 -9.0934075,4.27665 -11.1120413,-0.2987 -0.3358603,-0.76124 -0.4381169,-0.80159 -1.28316104,-0.50702 -0.69583117,0.24258 -0.70294392,0.53212 -0.0417207,1.67403 1.08883574,1.88041 2.58977334,3.12669 4.53140514,3.76254 1.5089722,0.49416 4.4456012,0.23131 5.9498289,-0.53273 2.750635,-1.39711 4.114996,-3.53458 4.155849,-6.51109 0.04381,-3.19519 -0.73268,-4.01115 -6.6627048,-7.00105 -4.381775,-2.20928 -5.2884314,-3.1175 -5.2884314,-5.29817 0,-4.43948 5.5401097,-6.0494 8.8242532,-2.56423 l 0.900997,0.95663 0.607848,-0.5077 0.608196,-0.50771 -0.686436,-0.83735 c -0.860716,-1.05039 -2.223983,-1.965 -3.4888799,-2.34065 -0.4626985,-0.1374 -1.1296212,-0.21001 -1.824591,-0.22393 z m 19.2477659,3.41968 c -1.227201,0.0149 -1.787345,1.72797 -0.625929,2.61917 0.405071,0.31083 1.208023,0.28128 1.527275,-0.11718 0.502994,-0.62781 0.716907,-1.71105 -0.344614,-2.38863 -0.159637,-0.1019 -0.381417,-0.1155 -0.556732,-0.11336 z m -7.977857,0.98444 -0.04939,2.72525 -0.008,2.7745 c -1.547281,0 -1.442125,0.008 -1.713223,0.009 0,0.73248 0.01359,0.66741 0.01675,1.50636 0.622887,0 1.138894,0.006 1.665884,0.006 0,1.99111 -0.004,0.99596 0.03614,7.02148 l 0.04657,6.98818 h 0.799111 0.799104 v -6.99653 -6.99689 c 0.718859,-0.0355 1.498468,6.7e-4 2.514063,6.7e-4 0,-1.05594 0.0085,-0.19014 0.0085,-1.51918 -2.825092,0.0109 -0.548247,0.007 -2.513532,0.007 l -0.04906,-2.70749 -0.04906,-2.7076 -0.752161,-0.0546 z m 23.581305,0.10919 c -0.03271,1.80338 0.0093,-0.5108 -0.09806,5.41015 -1.444097,0 -0.02126,9.7e-4 -1.414475,9.7e-4 0,1.39489 -0.0028,0.11153 -0.0028,1.49508 1.307448,0 0.0014,-0.006 1.426466,-0.006 0,11.3351 0.03486,13.92979 0.03486,13.92979 1.065701,0 -0.802025,-4e-5 1.656536,-4e-5 0,-6.79913 0.02699,-5.51286 0.02699,-13.88735 3.557745,0 -0.02974,0.0285 2.616778,0.0285 0,-0.575 0.02685,0.51736 0.02685,-1.54715 -1.815727,0 0.24108,0.0108 -2.662522,0.0108 0,-5.35351 0.05229,-3.62382 -0.0082,-5.43569 h -0.80119 z m 43.646265,5.08362 c -2.517151,-0.0223 -5.022595,1.20798 -6.412326,3.52712 -2.110366,3.52169 -1.57878,7.84251 1.312366,10.66903 2.498277,2.44242 7.097902,2.4507 9.861914,0.0177 1.099851,-0.96813 1.143126,-0.92898 1.055391,0.95489 -0.255305,5.48211 -2.40752,8.00349 -6.616798,7.75183 -2.817268,-0.16845 -4.663149,-1.63385 -5.391711,-4.27998 -0.223026,-0.81004 -0.259842,-0.84571 -0.876309,-0.84571 -0.842931,0 -0.852735,0.0165 -0.670791,1.17676 0.256503,1.63572 1.646631,3.69424 2.929711,4.33875 0.280473,0.14088 0.620229,0.33964 0.755297,0.44162 0.135075,0.10198 0.735964,0.31766 1.335319,0.47954 4.724533,1.27618 9.079249,-1.33777 9.878952,-5.93002 0.1312,-0.7534 0.202038,-4.10162 0.202038,-9.56737 v -8.40801 l -0.756683,0.0546 -0.756684,0.0549 -0.01877,0.97924 c -0.01022,0.53857 -0.03029,1.04659 -0.04448,1.12911 -0.0142,0.0825 -0.444718,-0.22653 -0.956633,-0.68679 -1.379874,-1.24063 -3.107503,-1.84202 -4.829764,-1.85728 z m -15.506427,0.0247 c -1.471526,-0.0537 -3.037219,0.41458 -4.087341,1.42677 -1.080775,1.04173 -0.995927,1.05236 -0.995927,-0.12553 v -0.97924 h -0.801196 -0.80119 v 7.62629 c 0,4.1944 0.0533,7.67961 0.118575,7.74486 0.06527,0.0653 0.41766,0.11859 0.783108,0.11859 h 0.664535 l 0.09006,-5.11874 c 0.09478,-5.39636 0.189972,-6.11139 0.986539,-7.3926 1.175581,-1.89083 3.674317,-2.40866 5.672339,-1.17537 1.232296,0.76065 1.492803,2.21709 1.476854,8.25501 0,4.32041 0.02053,1.57774 0.02053,5.30548 1.001691,0.0754 0.298492,0.0318 1.404198,0.0318 v -5.74938 c 0,-6.30077 -0.05316,-6.7373 -1.008798,-8.26335 -0.673255,-1.07511 -2.050732,-1.65088 -3.522256,-1.70462 z m -10.403346,0.30043 c -0.511525,0.0368 -1.534576,0.0162 -1.534576,0.0162 l -0.09771,5.79178 c -0.106739,6.23274 -0.14064,6.44238 -1.218829,7.52057 -1.343288,1.3433 -4.399352,1.2543 -5.61288,-0.16343 -0.8927,-1.04292 -0.99349,-1.80658 -0.99349,-7.52927 0,-5.45772 0.02228,1.25977 0.02228,-5.55781 -2.615424,0 -1.108431,-0.0564 -1.624667,-0.0564 l 0.004,6.00894 c 0.0034,5.65975 0.0249,6.05552 0.366518,6.81015 0.587519,1.29791 1.630677,2.17842 3.190515,2.69325 0.804164,0.26542 3.201994,0.30794 4.629119,-0.28654 0.907888,-0.37819 1.658408,-1.14359 2.203424,-1.96228 0.208557,-0.31327 0.297956,-0.6977 0.367434,-1.06757 0.376215,-2.00286 0.243745,-6.10877 0.243745,-6.10877 z m -34.02742,0.0474 v 7.709 7.75496 c 0,0 -0.0642,0.003 1.576317,0.003 0,-3.10203 -0.006,-2.12303 -0.03095,-7.95244 l -0.03197,-7.45103 -0.756684,-0.0546 z m 60.053339,1.16905 c 1.506394,0.0196 3.008026,0.61208 4.117594,1.84025 3.152784,3.48976 1.524645,9.93112 -2.780532,11.00075 -5.17804,1.28651 -9.133151,-4.24246 -6.761814,-9.45226 1.011524,-2.2223 3.223098,-3.41738 5.424752,-3.38874 z" />
  </g>
  <g
     id="layer3">
    <g
       aria-label="LUDWIGSBURG"
       transform="matrix(0.17834687,0,0,0.17834687,-13.032188,59.293133)"
       id="text21859"
       style="font-stretch:expanded;font-size:54.6667px;line-height:125%;font-family:'Switzera ADF Ex';-inkscape-font-specification:'Switzera ADF Ex, Expanded';letter-spacing:9.99px;word-spacing:0px;white-space:pre;shape-inside:url(#rect21861);display:inline;fill:#006bb6;stroke-width:1px">
      <path
         d="m 615.2912,219.36294 v 39.41469 h 26.02135 v -4.428 h -20.33601 v -34.98669 z"
         id="path1228" />
      <path
         d="m 652.72385,219.36294 v 24.65468 c 0,10.38668 5.52134,15.47068 15.90801,15.47068 10.49601,0 15.96268,-5.19334 15.96268,-15.47068 v -24.65468 h -5.68534 v 23.99868 c 0,8.41868 -3.06134,11.91734 -10.27734,11.91734 -7.38,0 -10.27734,-3.55333 -10.27734,-11.91734 v -23.99868 z"
         id="path1230" />
      <path
         d="m 709.18053,223.73628 h 6.83334 c 11.48001,0 16.61868,4.81067 16.61868,15.36134 0,10.60534 -5.13867,15.36134 -16.61868,15.36134 h -6.83334 z m -5.68533,-4.37334 v 39.41469 h 11.644 c 16.18134,0 23.45202,-6.17733 23.45202,-19.68001 0,-13.72134 -7.48934,-19.73468 -23.45202,-19.73468 z"
         id="path1232" />
      <path
         d="m 752.24375,219.36294 10.49601,39.41469 h 7.052 l 8.85601,-34.16668 8.80133,34.16668 h 7.10668 l 10.44134,-39.41469 h -5.74001 l -8.692,33.34669 -8.80134,-33.34669 h -6.28667 l -8.80134,33.34669 -8.69201,-33.34669 z"
         id="path1234" />
      <path
         d="m 821.27368,219.36294 v 39.41469 h 5.68534 v -39.41469 z"
         id="path1236" />
      <path
         d="m 875.21568,253.20163 c -2.46,1.36667 -5.52133,1.968 -9.512,1.968 -10.22268,0 -15.30668,-5.46667 -15.30668,-16.01734 0,-10.76934 5.248,-16.07201 15.30668,-16.07201 5.248,0 9.94934,1.69467 14.04934,4.97467 v -5.63067 c -4.1,-2.51467 -9.18401,-3.71734 -14.48668,-3.71734 -13.01067,0 -20.82801,7.48934 -20.82801,20.44535 0,12.90134 7.76267,20.33601 20.82801,20.33601 6.01334,0 11.26134,-1.42133 15.58001,-4.37334 v -16.89201 h -14.81467 v 4.31867 h 9.184 z"
         id="path1238" />
      <path
         d="m 923.527,220.67494 c -4.31867,-1.36666 -8.30934,-1.968 -12.24534,-1.968 -9.18401,0 -14.59601,4.31867 -14.59601,11.20668 0,6.12267 3.55333,9.23867 11.972,10.76934 l 3.44401,0.656 c 5.84933,1.09333 8.036,3.28 8.036,6.99733 0,4.53734 -3.82667,6.94267 -10.05867,6.94267 -4.37334,0 -8.80134,-1.36666 -13.22934,-3.71733 v 5.576 c 4.92,1.64 9.40267,2.35067 13.22934,2.35067 10.496,0 15.96267,-3.99067 15.96267,-11.53467 0,-6.50534 -4.04533,-10.11334 -12.35467,-11.69868 l -3.38934,-0.656 c -6.28667,-1.148 -8.036,-2.56933 -7.98133,-6.068 0.0547,-4.428 3.66267,-6.50534 9.62134,-6.50534 3.66266,0 7.27067,1.03867 11.58934,2.84267 z"
         id="path1240" />
      <path
         d="m 948.71424,239.97229 h 9.07467 c 5.95867,0 8.91067,2.35067 8.91067,7.216 0,5.08401 -3.00667,7.27067 -8.91067,7.27067 h -9.07467 z m 0,-16.23601 h 8.364 c 5.63067,0.10933 8.14534,2.07733 8.14534,5.95867 0,4.15467 -2.788,5.95867 -8.14534,5.95867 h -8.364 z m -5.68534,-4.37334 v 39.41469 h 14.97868 c 9.40267,0 14.65067,-3.936 14.65067,-10.988 0,-5.41201 -3.33467,-9.12934 -8.80134,-10.22268 4.75601,-0.76533 7.05201,-3.66266 7.05201,-8.47333 0,-6.23201 -5.084,-9.73068 -13.44801,-9.73068 z"
         id="path1242" />
      <path
         d="m 989.75489,219.36294 v 24.65468 c 0,10.38668 5.52133,15.47068 15.90801,15.47068 10.496,0 15.9627,-5.19334 15.9627,-15.47068 v -24.65468 h -5.6854 v 23.99868 c 0,8.41868 -3.0613,11.91734 -10.2773,11.91734 -7.38001,0 -10.27734,-3.55333 -10.27734,-11.91734 v -23.99868 z"
         id="path1244" />
      <path
         d="m 1060.3156,240.35496 c 4.7013,-1.312 7.1613,-4.70134 7.1613,-9.62134 0,-7.65334 -4.756,-11.37068 -14.1586,-11.37068 h -12.7921 v 39.41469 h 5.6854 v -16.61867 h 6.1227 c 4.4826,0 6.56,1.312 9.2933,6.56 l 3.1707,10.05867 h 6.068 l -3.5534,-10.71467 c -2.3506,-4.428 -4.6466,-6.99734 -6.9973,-7.708 z m -14.104,-16.61868 h 7.1067 c 5.4666,0.10933 8.2,2.46 8.2,6.99734 0,4.592 -2.788,6.99733 -8.2,6.99733 h -7.1067 z"
         id="path1246" />
      <path
         d="m 1115.3509,253.20163 c -2.46,1.36667 -5.5213,1.968 -9.512,1.968 -10.2226,0 -15.3066,-5.46667 -15.3066,-16.01734 0,-10.76934 5.248,-16.07201 15.3066,-16.07201 5.248,0 9.9494,1.69467 14.0494,4.97467 v -5.63067 c -4.1,-2.51467 -9.184,-3.71734 -14.4867,-3.71734 -13.0107,0 -20.828,7.48934 -20.828,20.44535 0,12.90134 7.7627,20.33601 20.828,20.33601 6.0133,0 11.2613,-1.42133 15.58,-4.37334 v -16.89201 h -14.8147 v 4.31867 h 9.184 z"
         id="path1248" />
    </g>
  </g>
  <g
     id="layer4">
    <path
       id="path1106"
       style="display:inline;fill:#006bb6;fill-opacity:1;stroke-width:0.0950058"
       d="m 136.42503,7.2858486 -0.28959,0.2139255 c -0.15928,0.1176598 -0.58391,0.3269909 -0.94373,0.4651136 l -0.65414,0.2511908 -0.67536,-0.4027206 c -0.37146,-0.2215145 -0.70047,-0.4540971 -0.7311,-0.5169048 -0.0307,-0.062804 -0.15339,-0.194902 -0.2728,-0.2933623 -0.16785,-0.1383962 -0.2849,-0.1580449 -0.51564,-0.086751 -0.28812,0.089015 -0.30456,0.083106 -0.4732,-0.172783 -0.23938,-0.3632193 -0.7353,-0.5961264 -0.94586,-0.4442348 -0.11695,0.084373 -0.29685,0.06766 -0.63299,-0.058383 -0.32229,-0.1208467 -0.52048,-0.141864 -0.6318,-0.067102 -0.0892,0.059915 -0.4169,0.2165559 -0.72836,0.3481332 -0.44069,0.1861598 -0.59956,0.307291 -0.71627,0.5461121 -0.11225,0.2296996 -0.26364,0.3524048 -0.60152,0.4879718 -0.39351,0.1578716 -0.49712,0.2552466 -0.80704,0.7576421 -0.19554,0.3170305 -0.39907,0.5806708 -0.45217,0.5859452 -0.13475,0.013392 -0.81558,1.4341236 -1.03889,2.1678946 -0.45889,1.50775 -1.04478,3.798889 -1.03554,4.049339 0.004,0.112838 -0.0362,0.293897 -0.09,0.402315 -0.0538,0.10841 -0.15507,0.59721 -0.22519,1.086364 -0.26105,1.820737 -0.68409,3.541993 -1.14709,4.666041 -0.13108,0.318218 -0.25982,0.710754 -0.28607,0.872397 -0.0263,0.16165 -0.12639,0.517208 -0.22219,0.790237 -0.0959,0.273035 -0.26779,0.974142 -0.38213,1.558003 -0.1143,0.583866 -0.2562,1.16058 -0.31521,1.281541 -0.0591,0.120952 -0.14559,0.541826 -0.19238,0.935113 -0.0468,0.393289 -0.11253,0.77129 -0.1462,0.840167 -0.0338,0.06886 -0.11577,0.469876 -0.18242,0.891037 -0.29644,1.873711 -1.52443,5.913423 -1.95151,6.420007 -0.21676,0.257124 -0.47395,0.121348 -0.54143,-0.28584 -0.0605,-0.364513 -0.0492,-2.315141 0.0141,-2.4446 0.0231,-0.04717 0.0741,-0.534994 0.11349,-1.084008 0.039,-0.549044 0.13744,-1.441912 0.21805,-1.984135 0.0805,-0.542231 0.16422,-1.16753 0.18582,-1.389576 0.0215,-0.222045 0.0926,-0.686975 0.15776,-1.033211 0.15484,-0.82466 0.20229,-1.357239 0.19191,-2.154034 -0.007,-0.52687 0.0733,-0.900672 0.41453,-1.929414 0.31161,-0.939799 0.41935,-1.410197 0.4091,-1.786049 -0.007,-0.280622 0.0333,-0.60692 0.0913,-0.725141 0.0578,-0.118232 0.0714,-0.231523 0.0302,-0.251649 -0.0412,-0.02011 -0.0221,-0.308241 0.0426,-0.64019 0.0645,-0.331975 0.14314,-0.75748 0.17462,-0.945655 0.0315,-0.188168 0.14959,-0.653879 0.26259,-1.034841 0.11298,-0.380964 0.2388,-0.866714 0.27945,-1.079474 0.0407,-0.212747 0.20928,-0.77275 0.37473,-1.244406 0.16541,-0.471664 0.36599,-1.087408 0.44561,-1.368375 0.12672,-0.447269 0.4124,-1.180673 0.77286,-1.983967 0.0607,-0.135283 0.0861,-0.384597 0.0562,-0.55412 -0.0301,-0.171201 0.0399,-0.61491 0.1578,-0.9978642 0.21719,-0.7061755 0.25803,-1.2698721 0.13677,-1.8893069 -0.0378,-0.1929007 -0.058,-0.6117529 -0.0453,-0.9308696 0.0143,-0.3600202 -0.0665,-0.8148958 -0.21284,-1.1988031 -0.12972,-0.3402928 -0.22328,-0.7043547 -0.20776,-0.8088884 0.0398,-0.2676355 -0.38351,-1.3521718 -0.6701,-1.7173736 -0.16593,-0.2114385 -0.36792,-0.3530773 -0.65497,-0.4588402 -0.35072,-0.1292243 -0.42924,-0.1982137 -0.50521,-0.4441082 -0.0495,-0.1600883 -0.19799,-0.3649613 -0.33014,-0.4554142 -0.28196,-0.1930186 -1.08648,-0.3880545 -1.53542,-0.3721432 -0.1733,0.00615 -0.33345,-0.018001 -0.35601,-0.053772 -0.0226,-0.035742 -0.14684,-0.022513 -0.27615,0.029243 -0.12933,0.051755 -0.2853,0.069387 -0.34662,0.039427 -0.0614,-0.029966 -0.21501,-0.016538 -0.34163,0.029668 -0.12664,0.046237 -0.3483,0.05784 -0.49254,0.025732 -0.14425,-0.032102 -0.28362,-0.014666 -0.30969,0.038672 -0.07,0.1432319 -0.72518,0.452439 -0.97845,0.4617821 -0.16666,0.00615 -0.28451,-0.063827 -0.49002,-0.290886 l -0.2707,-0.2989413 -0.0585,0.2621933 c -0.0321,0.1441749 -0.0569,0.3430016 -0.0552,0.4418335 0.006,0.3401207 -0.1785,0.5496564 -0.61686,0.7002269 -0.35236,0.1210358 -0.46218,0.1191462 -0.55501,-0.00955 -0.0636,-0.088257 -0.3872,-0.3069599 -0.71887,-0.4861433 -0.5429,-0.2933097 -0.62534,-0.3134204 -0.82814,-0.2012474 -0.12387,0.068528 -0.27995,0.097817 -0.34661,0.065234 -0.0667,-0.032581 -0.23797,0.014573 -0.3808,0.1047152 -0.14283,0.09014 -0.45122,0.2807288 -0.68526,0.4235058 -0.29393,0.1793018 -0.47982,0.3707722 -0.601,0.6187542 -0.10535,0.2155592 -0.24765,0.3765026 -0.35609,0.4028282 -0.22252,0.054034 -0.74545,1.0511727 -1.38707,2.6450006 -0.217,0.5390424 -0.26656,0.7829925 -0.21492,1.0581383 0.0705,0.3751672 0.0756,1.6940329 0.007,1.8341203 -0.0219,0.04484 0.0901,0.4484843 0.24892,0.8971472 0.15879,0.448664 0.2727,0.848472 0.25323,0.888311 -0.0645,0.132111 0.2051,0.779045 0.47377,1.136507 0.14557,0.193695 0.26986,0.403868 0.27612,0.467025 0.006,0.06315 0.14853,0.296129 0.31601,0.5177 0.50963,0.67425 0.86556,1.84549 0.56978,1.874882 -0.14097,0.01401 -0.61843,-0.451627 -0.56829,-0.554236 0.0212,-0.04331 -0.0611,-0.127525 -0.18269,-0.186966 -0.12938,-0.06323 -0.30542,-0.302838 -0.42419,-0.577376 -0.11167,-0.258121 -0.26252,-0.500314 -0.33528,-0.538269 -0.12757,-0.06654 -0.29165,-0.274644 -0.98257,-1.247387 -0.17703,-0.249221 -0.39906,-0.464648 -0.49349,-0.478655 -0.0945,-0.0139 -0.29963,-0.18819 -0.45614,-0.387294 -0.2157,-0.274419 -0.36619,-0.382971 -0.62151,-0.448275 -0.18525,-0.04738 -0.4735,-0.146957 -0.64069,-0.221378 -0.16717,-0.07444 -0.41118,-0.128924 -0.54209,-0.120944 -0.13095,0.008 -0.34635,-0.03807 -0.47885,-0.102019 -0.2682,-0.129886 -0.94584,0.06674 -1.17623,0.341176 -0.0789,0.09404 -0.1227,0.314633 -0.10365,0.521853 0.0264,0.285943 -0.005,0.390507 -0.15531,0.513946 -0.16087,0.132436 -0.25037,0.124453 -0.61668,-0.05454 -0.44011,-0.215066 -0.55855,-0.185275 -0.42666,0.10729 0.0414,0.0918 0.0487,0.303513 0.0164,0.470467 -0.0822,0.42562 -0.8688,1.694136 -1.2033,1.940503 -0.51418,0.378744 -0.56944,0.429505 -0.65181,0.598055 -0.0451,0.09232 -0.0854,0.287403 -0.0893,0.433432 -0.005,0.218379 -0.061,0.30422 -0.31071,0.483245 -0.2922,0.209612 -0.30352,0.232298 -0.30712,0.609529 -0.004,0.374223 -0.018,0.403322 -0.31665,0.651342 -0.248519,0.206215 -0.318281,0.318782 -0.339733,0.547328 -0.01475,0.158279 -0.129665,0.448793 -0.255108,0.645893 -0.139254,0.218804 -0.202133,0.399474 -0.16158,0.463796 0.03656,0.05794 0.0076,0.22849 -0.06402,0.379087 -0.146955,0.308857 -0.121148,0.514688 0.113178,0.89938 0.08901,0.146129 0.15548,0.48726 0.147574,0.75799 -0.0079,0.270732 0.0764,0.754372 0.187474,1.074885 0.111079,0.320511 0.217952,0.696199 0.237482,0.834765 0.0204,0.145579 0.24036,0.463297 0.52071,0.752592 0.266833,0.275328 0.555123,0.659142 0.640653,0.852913 0.19951,0.452012 0.51868,0.814275 0.87168,0.989561 0.15361,0.07624 0.4997,0.310061 0.76904,0.519543 0.28341,0.22041 0.59713,0.398924 0.74469,0.423587 0.14025,0.02342 0.42303,0.06899 0.62847,0.101395 0.20543,0.03242 0.80213,0.223329 1.32594,0.424258 0.52382,0.200937 1.35537,0.514463 1.84791,0.696679 0.49255,0.182224 0.99946,0.381602 1.12646,0.443259 0.16698,0.08082 0.23463,0.07125 0.24406,-0.03542 0.008,-0.08111 0.0557,-0.126834 0.10745,-0.101564 0.0521,0.0254 0.0776,0.08096 0.0568,0.123385 -0.0399,0.08157 0.14452,0.207634 1.70389,1.165543 0.54444,0.334445 1.38718,0.953941 1.90605,1.401047 0.51156,0.44081 1.23388,1.00756 1.60517,1.25939 0.37128,0.251824 0.89634,0.657826 1.16672,0.902221 0.27038,0.244395 0.80469,0.68983 1.18745,0.990002 0.5877,0.460914 1.17015,1.009346 1.75941,1.656739 0.0764,0.08403 0.0803,0.200656 0.01,0.304136 -0.2294,0.337587 -1.30725,-0.18974 -3.86622,-1.891275 -0.52673,-0.350257 -1.14985,-0.77919 -1.38461,-0.95335 -0.23477,-0.174151 -0.63449,-0.427281 -0.88828,-0.562524 -0.25378,-0.135242 -0.59474,-0.362547 -0.7577,-0.505122 -0.16297,-0.142575 -0.53334,-0.407083 -0.82303,-0.58785 -0.28971,-0.180768 -0.57991,-0.414968 -0.64492,-0.520427 -0.28994,-0.470376 -3.2556,-2.153419 -3.74017,-2.122581 -0.1311,0.0083 -0.45211,-0.08938 -0.71341,-0.217062 -0.26131,-0.127687 -0.4927,-0.196276 -0.51409,-0.152493 -0.0214,0.04378 -0.12288,0.06715 -0.2255,0.05194 -0.10262,-0.01518 -0.28647,0.06049 -0.40859,0.168368 -0.12212,0.107874 -0.34961,0.188457 -0.50559,0.1788 -0.15598,-0.0096 -0.43746,0.08852 -0.62548,0.218313 -0.188,0.12979 -0.42326,0.255859 -0.52283,0.280036 -0.10262,0.02491 -0.24892,0.182686 -0.33767,0.364324 -0.0905,0.184973 -0.23505,0.339707 -0.34207,0.365687 -0.10473,0.02531 -0.19059,0.115658 -0.19728,0.207196 -0.007,0.08927 -0.0544,0.270212 -0.10663,0.402048 -0.0521,0.131844 -0.0632,0.349175 -0.0236,0.482862 0.0475,0.164258 0.0207,0.294616 -0.0824,0.40274 -0.20921,0.219303 -1.148613,0.574051 -1.543893,0.583032 l -0.324327,0.0074 0.292307,0.267795 c 0.63066,0.577745 0.7858,1.17344 0.51566,1.981431 -0.12174,0.364382 -0.12779,0.538825 -0.0242,0.713084 0.0787,0.132429 0.0959,0.314713 0.0405,0.428097 -0.10231,0.209385 -0.0256,0.564326 0.1394,0.64495 0.0543,0.02653 0.164233,0.270581 0.244123,0.542254 0.10848,0.368854 0.21096,0.526057 0.40465,0.620709 0.15215,0.07435 0.32113,0.266213 0.40872,0.464078 0.11996,0.270986 0.24234,0.382773 0.62227,0.56843 0.26012,0.127104 0.5569,0.320894 0.6597,0.430583 0.15329,0.163587 0.2682,0.1938 0.63854,0.168284 0.24832,-0.01711 0.6492,0.03525 0.89101,0.116537 0.59864,0.201094 2.0774,0.197995 2.82202,-0.006 0.16787,-0.04597 0.57935,-0.109055 0.9144,-0.14012 0.33505,-0.03107 0.74522,-0.09142 0.91148,-0.134115 0.16625,-0.0427 0.62484,-0.104772 1.01914,-0.138088 1.26473,-0.10685 2.41492,-0.371444 4.22914,-0.97307 0.97441,-0.323136 1.89848,-0.605759 2.05359,-0.627848 0.15512,-0.02207 0.48592,-0.09652 0.73491,-0.165453 0.249,-0.06894 0.65805,-0.152211 0.90911,-0.185049 0.64606,-0.08451 0.70923,-0.282211 0.30635,0.62214 -0.85058,1.485702 -0.85546,1.403659 -2.84243,5.078616 -0.82642,1.583151 -1.84912,3.293527 -2.95891,4.816166 -1.89369,2.598158 -3.03693,4.464813 -6.27786,7.32236 -0.71032,1.80762 1.70954,2.679257 2.9853,2.942123 3.92113,-9.64576 4.60308,-10.425375 4.60308,-10.425375 1.70966,-3.019026 3.83454,-7.360071 5.01431,-9.362834 0.64973,-0.959556 0.72895,-0.753602 0.85275,-0.266093 0.0256,0.100988 0.12379,0.444354 0.21798,0.763071 0.207,0.700358 0.35125,1.771149 0.38675,2.869079 0.0145,0.447596 0.0434,0.961364 0.0644,1.141736 0.0499,0.429681 0.80505,3.187498 0.88325,3.225709 0.0332,0.01623 0.20506,0.421397 0.38181,0.900335 0.35985,0.975012 0.96733,2.296729 1.0812,2.352376 0.041,0.02004 0.23293,0.33565 0.42663,0.701255 0.36572,0.69027 0.80206,1.16806 1.27932,1.40128 0.15299,0.07475 0.42482,0.306468 0.60404,0.514908 0.24634,0.286533 0.43556,0.418226 0.77595,0.539647 0.24761,0.08835 0.56996,0.25638 0.71635,0.373388 l 1.7e-4,8.2e-5 c 0.42088,0.336447 0.55757,0.397107 0.87723,0.389859 0.16481,-0.0037 0.44018,0.06185 0.61179,0.145709 0.42176,0.206098 1.36407,0.0037 1.87409,-0.402474 0.52498,-0.418158 1.45312,-0.509456 2.07769,-0.204255 0.33148,0.161975 0.38079,0.002 0.17749,-0.575806 -0.0931,-0.26454 -0.16782,-0.610365 -0.16616,-0.768522 0.009,-0.892952 0.10344,-1.512129 0.28874,-1.900219 0.0767,-0.161907 0.12024,-0.396065 0.0959,-0.520874 -0.0244,-0.12481 -0.005,-0.30725 0.0427,-0.405202 0.0478,-0.09795 0.0719,-0.279314 0.0534,-0.403063 -0.0184,-0.123751 0.01,-0.379603 0.0626,-0.568536 0.0569,-0.202665 0.0457,-0.392293 -0.027,-0.462577 -0.0677,-0.06552 -0.23394,-0.411168 -0.36939,-0.768082 -0.18102,-0.476932 -0.3132,-0.681751 -0.499,-0.772544 -0.13905,-0.06794 -0.35988,-0.265726 -0.49073,-0.439508 -0.13087,-0.173778 -0.37741,-0.444532 -0.54781,-0.601645 -0.17038,-0.157105 -0.29402,-0.31798 -0.27471,-0.357492 0.0192,-0.03953 -0.19795,-0.185736 -0.48272,-0.324893 -0.28477,-0.139153 -0.57906,-0.337977 -0.65397,-0.44184 -0.29,-0.402067 -0.71274,-0.665978 -2.16393,-1.350892 -2.08808,-0.985507 -2.84543,-1.369297 -3.60202,-1.82542 -0.35937,-0.216657 -0.83923,-0.500589 -1.06632,-0.630943 -0.90944,-0.522026 -1.07511,-0.640478 -1.2696,-0.907677 -0.11136,-0.152996 -0.27537,-0.313823 -0.36458,-0.357423 -0.27897,-0.136317 -0.61094,-0.524031 -0.55194,-0.644754 0.031,-0.0635 0.0107,-0.182001 -0.0459,-0.263237 -0.0751,-0.108266 -0.055,-0.209668 0.0752,-0.380262 0.31133,-0.407875 3.33931,-1.418756 6.008,-2.005713 0.76418,-0.168072 1.08404,-0.217119 2.58922,-0.397705 0.67959,-0.08153 1.26713,-0.164053 1.30564,-0.18335 0.0812,-0.04079 1.36134,-0.243394 1.87448,-0.296758 0.19271,-0.02004 0.65581,-0.09114 1.02925,-0.157927 0.37344,-0.06679 0.72294,-0.100359 0.77658,-0.07447 0.0536,0.02587 0.24319,0.04128 0.42113,0.03418 1.01421,-0.04053 2.1956,-0.02132 2.6477,0.04308 0.28481,0.04057 0.55706,0.04897 0.60506,0.01872 0.048,-0.03025 0.181,-0.0092 0.29562,0.04676 0.49753,0.243123 -0.23574,0.622245 -1.49661,0.773637 -0.34098,0.04094 -1.42067,0.342103 -2.39935,0.669337 -1.14265,0.382049 -2.03694,0.614075 -2.49891,0.648169 -0.39568,0.0292 -0.89491,0.102504 -1.10953,0.162898 -0.21465,0.06039 -0.55279,0.14138 -0.75132,0.179959 -0.19853,0.03858 -0.5004,0.103816 -0.67079,0.144952 -0.17039,0.04115 -0.63633,0.07045 -1.03559,0.0652 -0.74961,-0.0099 -1.94971,0.135056 -2.59207,0.313087 -0.70716,0.195982 -1.86009,0.312749 -3.17043,0.320849 -0.55416,0.0034 -1.03559,0.03094 -1.06981,0.06129 -0.0342,0.03033 -0.13357,0.02023 -0.22078,-0.02241 -0.0872,-0.04261 -0.20099,-0.05062 -0.25293,-0.01786 -0.12317,0.07767 -0.0301,0.118926 0.95621,0.423477 0.74276,0.229332 4.0943,1.792375 8.99921,4.196796 1.36643,0.669737 2.84724,1.725807 3.48741,2.486872 0.21093,0.250785 0.61713,0.567358 1.11029,0.865561 0.42768,0.258619 1.06901,0.652997 1.42516,0.8763 0.35615,0.223301 1.18719,0.664902 1.84676,0.981336 1.11713,0.535931 1.23592,0.57444 1.73482,0.561282 0.29461,-0.0078 0.70042,0.03225 0.90182,0.08895 0.2496,0.07027 0.50354,0.04897 0.79807,-0.06686 0.23762,-0.09345 0.63597,-0.172063 0.88503,-0.174704 0.33704,-0.0036 0.48774,-0.0591 0.58963,-0.217245 0.0753,-0.116846 0.29614,-0.252256 0.4907,-0.300902 0.2809,-0.07022 0.38767,-0.157653 0.51781,-0.423971 0.10432,-0.213639 0.27151,-0.387305 0.46035,-0.478469 0.27689,-0.133664 0.29668,-0.165199 0.29968,-0.475827 0.002,-0.229457 0.0576,-0.384566 0.17834,-0.499807 0.0962,-0.09191 0.21136,-0.297367 0.25579,-0.456583 0.0443,-0.159258 0.26044,-0.509425 0.48002,-0.778233 0.25497,-0.312093 0.4674,-0.674892 0.58762,-1.00386 0.20635,-0.5646 0.34666,-0.722148 1.24219,-1.397543 0.47114,-0.355114 0.55292,-0.451236 0.49429,-0.581267 -0.0629,-0.13954 -0.0244,-0.389002 0.145,-0.936589 0.0304,-0.09815 0.0171,-0.216375 -0.0304,-0.262633 -0.0471,-0.04623 -0.0889,-0.271537 -0.0928,-0.500732 -0.004,-0.229197 -0.0639,-0.444488 -0.13325,-0.478367 -0.0693,-0.03388 -0.20722,-0.261107 -0.30633,-0.504926 -0.0991,-0.243815 -0.30303,-0.533757 -0.45317,-0.644412 -0.16805,-0.123845 -0.30614,-0.339322 -0.35931,-0.560542 -0.079,-0.328757 -0.13147,-0.381472 -0.61576,-0.61812 -0.29116,-0.142277 -0.53387,-0.303086 -0.53927,-0.357489 -0.006,-0.05445 -0.42103,-0.334325 -0.92349,-0.62187 -0.7807,-0.446746 -0.94557,-0.513564 -1.133,-0.459464 -0.23885,0.06895 -1.04535,-0.267702 -0.97691,-0.407772 0.0219,-0.04476 0.17409,-0.101232 0.33827,-0.125492 0.1642,-0.02425 0.42255,-0.0865 0.5741,-0.138507 0.15155,-0.052 0.63003,-0.09374 1.06338,-0.09251 0.61984,0.0017 0.93287,-0.06328 1.46684,-0.304906 0.37335,-0.168937 0.89541,-0.340988 1.16024,-0.382444 0.5638,-0.08824 0.89449,-0.251922 1.01742,-0.503459 0.0484,-0.09922 0.31432,-0.290966 0.59087,-0.426051 0.3892,-0.19013 0.51861,-0.30402 0.5725,-0.504223 0.0441,-0.163959 0.17453,-0.325135 0.35623,-0.440341 0.24249,-0.153754 0.34967,-0.321876 0.69701,-1.092491 0.27917,-0.619387 0.40808,-1.017163 0.40295,-1.243006 -0.006,-0.265636 0.0377,-0.376699 0.21708,-0.554599 0.18455,-0.18287 0.23534,-0.326034 0.28586,-0.806004 0.0446,-0.424257 0.12602,-0.680257 0.29817,-0.936906 0.24925,-0.371684 0.23749,-0.513706 -0.0761,-0.918224 -0.0763,-0.09862 -0.11509,-0.321167 -0.0859,-0.494655 0.044,-0.260771 0.005,-0.349419 -0.22599,-0.511299 -0.15354,-0.107692 -0.32805,-0.264772 -0.3879,-0.348993 -0.0598,-0.08422 -0.20016,-0.197773 -0.31184,-0.252344 -0.2569,-0.125534 -0.48,-0.581411 -0.48953,-1.00068 -0.006,-0.247402 0.067,-0.439666 0.30833,-0.816085 l 0.31568,-0.49217 -0.50796,0.14604 c -0.58362,0.167935 -0.92448,0.05646 -1.13008,-0.369445 -0.0735,-0.152226 -0.17275,-0.295899 -0.22068,-0.319316 -0.0479,-0.02343 -0.11949,-0.136593 -0.15896,-0.25158 -0.0568,-0.165148 -0.0419,-0.212055 0.0712,-0.223321 0.1137,-0.0113 0.1642,-0.158364 0.24381,-0.711515 0.0853,-0.592866 0.0714,-0.711496 -0.0932,-0.791928 -0.10648,-0.05203 -0.23828,-0.239425 -0.29276,-0.416501 -0.08,-0.260143 -0.15783,-0.33979 -0.4051,-0.414813 -0.18711,-0.05677 -0.39243,-0.201748 -0.52855,-0.373106 -0.18002,-0.226614 -0.27408,-0.281689 -0.49124,-0.287554 -0.32736,-0.0088 -0.91236,-0.284017 -1.07073,-0.503599 -0.0923,-0.127931 -0.20168,-0.134735 -0.53176,-0.03357 -0.22857,0.07012 -0.60155,0.118366 -0.82881,0.107389 -0.48174,-0.02328 -1.1948,0.172938 -1.28275,0.352936 -0.0753,0.154264 -0.63097,0.353087 -1.15342,0.412835 -0.64823,0.07413 -1.0251,0.250468 -1.5727,0.735828 -0.28651,0.253942 -0.64292,0.497236 -0.79207,0.540663 -0.57081,0.166177 -1.02044,0.487955 -1.62427,1.162517 -0.34406,0.384374 -0.78775,0.842736 -0.98589,1.018448 -0.19816,0.175702 -0.55605,0.571825 -0.7953,0.880272 -0.46823,0.60364 -1.0442,1.160728 -1.14821,1.110547 -0.0352,-0.01701 -0.13013,0.104018 -0.21075,0.268972 -0.0806,0.164957 -0.21464,0.349271 -0.29782,0.409605 -0.0832,0.06034 -0.33765,0.327903 -0.56546,0.594612 -0.22779,0.266711 -0.63085,0.616968 -0.89581,0.778286 -0.55942,0.340601 -0.8897,0.611372 -0.99373,0.814697 -0.0409,0.07904 -0.29991,0.317849 -0.57633,0.530231 -0.27643,0.21239 -0.53862,0.459848 -0.58263,0.549876 -0.16731,0.342421 -1.03339,1.190015 -1.43399,1.403359 -0.22985,0.122408 -0.45036,0.288924 -0.48999,0.370024 -0.0396,0.0811 -0.14812,0.165823 -0.24119,0.188423 -0.0931,0.0226 -0.51777,0.344807 -0.94368,0.716067 -0.4259,0.37126 -0.88366,0.728315 -1.01716,0.793336 -0.24574,0.119689 -0.63496,0.440737 -2.21932,1.830013 -0.48224,0.422871 -1.22318,1.002685 -1.64643,1.288618 -0.42326,0.285927 -0.77778,0.536732 -0.78778,0.55722 -0.0244,0.05009 -1.16782,0.784073 -1.74843,1.122493 -0.46283,0.269765 -0.82614,0.256611 -0.85472,-0.03104 -0.0232,-0.232436 0.64513,-1.412253 1.2843,-2.267718 0.90048,-1.205163 1.71075,-2.2568 2.04222,-2.65014 0.44593,-0.529146 1.94208,-2.049584 2.07636,-2.110124 0.0665,-0.03002 0.28753,-0.255929 0.49079,-0.501817 0.20324,-0.245887 0.50459,-0.562915 0.66957,-0.704608 0.165,-0.141692 0.42631,-0.418468 0.58079,-0.615 0.584,-0.742914 0.72075,-0.903616 1.21789,-1.432757 0.28087,-0.298936 0.57203,-0.561122 0.64714,-0.582578 0.23812,-0.06803 0.60648,-0.324041 0.89326,-0.620919 0.15262,-0.158044 0.39345,-0.344176 0.53524,-0.413593 0.14177,-0.06941 0.28364,-0.178984 0.3152,-0.243536 0.0487,-0.09965 0.60204,-0.549752 1.67972,-1.36651 0.13211,-0.100101 0.27042,-0.243994 0.30747,-0.319815 0.0371,-0.07582 0.3967,-0.384055 0.79915,-0.684876 0.45743,-0.341925 0.8406,-0.711822 1.02222,-0.986655 0.1658,-0.250897 0.57468,-0.659714 0.95255,-0.952334 0.36417,-0.281996 0.71637,-0.623689 0.78269,-0.759417 0.0663,-0.135725 0.22445,-0.324565 0.35145,-0.419546 0.13088,-0.09788 0.34623,-0.414209 0.49733,-0.729925 0.14661,-0.306389 0.38087,-0.667758 0.52081,-0.80292 0.18382,-0.177476 0.31536,-0.421578 0.47335,-0.878989 0.12599,-0.365008 0.37201,-0.864033 0.58094,-1.177708 0.29765,-0.447569 0.36264,-0.609004 0.3655,-0.907315 0.002,-0.199601 0.0807,-0.582944 0.17506,-0.851881 0.13203,-0.376099 0.14164,-0.570857 0.0415,-0.843443 -0.0825,-0.224518 -0.0876,-0.441625 -0.0137,-0.592646 0.0947,-0.193774 0.0665,-0.30494 -0.15072,-0.593893 -0.14695,-0.195502 -0.34206,-0.4048067 -0.43363,-0.4650942 -0.0916,-0.060288 -0.20023,-0.1377341 -0.24156,-0.1721535 -0.20172,-0.1679605 -0.4893,-0.2154125 -0.81401,-0.134241 -0.19684,0.04921 -0.42911,0.054668 -0.51623,0.012093 -0.25721,-0.1256961 -0.3547,-0.852408 -0.20639,-1.5395242 z M 110.82162,15.77215 c 0.36493,0.184471 2.15719,2.781805 2.05262,2.995803 -0.0184,0.03772 0.0224,0.09578 0.0904,0.129056 0.068,0.03327 0.12773,0.132393 0.13262,0.220119 0.009,0.156137 0.32174,0.908758 0.71644,1.722671 0.10902,0.224796 0.36326,0.91223 0.56496,1.527624 0.2017,0.615402 0.55501,1.646976 0.7852,2.292423 0.23021,0.645444 0.54464,1.63962 0.69867,2.209228 0.154,0.569598 0.36869,1.212181 0.47715,1.427922 0.312,0.620663 1.45765,3.953401 1.59753,4.647247 0.24573,1.218765 0.35857,2.231419 0.25894,2.324191 -0.0554,0.05158 -0.16844,0.05886 -0.25112,0.01605 -0.16789,-0.08678 -0.61217,-0.640507 -0.73558,-0.916856 -0.044,-0.09869 -0.26949,-0.473747 -0.50087,-0.833355 -0.58527,-0.909618 -1.08912,-1.957124 -1.95294,-4.060277 -0.17184,-0.41838 -0.33873,-0.773537 -0.37101,-0.789312 -0.0323,-0.01577 -0.19331,-0.528726 -0.35769,-1.139891 -0.16437,-0.611166 -0.37464,-1.345547 -0.46724,-1.632084 -0.74006,-2.289644 -1.36614,-4.359791 -1.42356,-4.70701 -0.0379,-0.228876 -0.12006,-0.467676 -0.18269,-0.530614 -0.0627,-0.06293 -0.1446,-0.392308 -0.1822,-0.731945 -0.065,-0.587744 -0.21468,-1.038368 -0.60453,-1.818965 -0.20821,-0.41688 -0.32657,-0.77852 -0.50682,-1.549398 -0.1415,-0.605239 -0.10479,-0.833554 0.13095,-0.812727 0.009,7.17e-4 0.0191,0.0041 0.0309,0.01007 z m -1.32387,11.834934 c 0.12021,0.04896 0.16618,0.200644 0.0348,0.283587 -0.12235,0.07718 -0.44999,-0.06474 -0.3975,-0.172141 0.0201,-0.0412 0.11995,-0.09515 0.22172,-0.119862 0.0528,-0.01281 0.101,-0.0079 0.14108,0.0084 z" />
  </g>
</svg>
