<?xml version="1.0" encoding="UTF-8"?>
<svg enable-background="new 0 0 500 500" version="1.1" viewBox="0 0 500 500" xmlns="http://www.w3.org/2000/svg">
 <path d="m82.373 88.258c-2.503 0.722-2.086 4.217-2.151 6.228-0.15 4.678-0.152 9.363-0.173 14.042-0.023 5.242-0.021 10.483-0.023 15.725-1e-3 1.857-2e-3 3.714-0.01 5.572-1e-3 0.458-0.194 3.103 0.046 1.855h4.821c0.466 1.221 0.047-0.552-0.028-0.158l-1.746 1.746c0.015-5e-3 0.029-9e-3 0.044-0.014-0.941-0.383-1.882-0.766-2.823-1.148 1.085 1.875 0.96 8.877 0.492 11.943-0.463 3.03-1.878 3.874-4.843 4.189-2.26 0.241-8.171 0.547-9.212-2.084-1.295-3.273 6.35-6.603 8.435-7.275 1.519-0.49 3.064 0.185 4.396 0.917 3.6 1.978-1.907 4.444-3.238 4.921-4.014 1.438-3.473-3.111-1.294-4.794 0.519-0.401 1.456-1.064 1.807-0.184 1.027 2.575-2.041 1.815-3.376 1.313l1.746 3.075c0.285-0.614 0.57-1.229 0.855-1.843 1.909-2.606-2.434-5.096-4.317-2.523-0.934 1.275-1.072 1.522-1.359 3.037-0.272 1.437 0.39 2.565 1.746 3.075 4.91 1.848 10.643-0.417 9.738-6.446-0.837-5.583-6.873-6.329-10.603-2.865-2.695 2.503-5.337 5.436-4.104 9.324 1.105 3.483 5.944 4.582 9.079 3.941 5.995-1.227 13.853-8.295 6.627-13.756-6.198-4.685-15.641-1.111-19.602 5.072-4.596 7.175 1.782 11.263 8.32 12.054 6.463 0.782 12.611-0.912 14.02-7.818 0.859-4.213 1.281-11.866-0.996-15.796-0.546-0.944-1.762-1.481-2.823-1.149-0.015 5e-3 -0.029 9e-3 -0.044 0.014-0.788 0.246-1.583 0.889-1.746 1.746-0.145 0.76-0.267 2.043 0.028 2.816 0.795 2.083 4.309 2.667 4.821 0 1.2-6.239 0.14-13.565 0.152-19.883 9e-3 -4.659 0.028-9.318 0.091-13.977 0.023-1.736 0.058-3.472 0.114-5.207 0.019-0.6 0.047-1.2 0.081-1.799 0.106-1.911 0.271 0.39-1.618 0.935 3.091-0.891 1.775-5.717-1.33-4.821z"/>
 <path d="m136.47 123.15c2.504-0.721 2.086-4.219 2.151-6.229 0.15-4.678 0.152-9.362 0.173-14.042 0.023-5.242 0.021-10.483 0.023-15.725 1e-3 -1.857 2e-3 -3.714 0.01-5.572 1e-3 -0.458 0.194-3.103-0.046-1.855h-4.821c-0.466-1.221-0.047 0.552 0.028 0.158l1.746-1.746c-0.015 4e-3 -0.029 9e-3 -0.044 0.014l2.823 1.149c-1.085-1.875-0.96-8.877-0.492-11.943 0.463-3.03 1.878-3.874 4.843-4.189 2.261-0.24 8.171-0.546 9.212 2.085 1.295 3.273-6.35 6.603-8.435 7.275-1.519 0.489-3.064-0.185-4.396-0.917-3.6-1.978 1.907-4.443 3.238-4.921 4.013-1.439 3.473 3.111 1.294 4.794-0.519 0.401-1.456 1.064-1.807 0.184-1.027-2.575 2.042-1.815 3.376-1.313l-1.746-3.075c-0.285 0.614-0.57 1.229-0.855 1.843-1.908 2.606 2.434 5.096 4.317 2.523 0.935-1.275 1.072-1.522 1.36-3.038 0.272-1.437-0.39-2.565-1.746-3.075-4.911-1.848-10.644 0.417-9.739 6.446 0.838 5.583 6.874 6.329 10.603 2.865 2.695-2.503 5.338-5.436 4.104-9.324-1.105-3.483-5.944-4.582-9.079-3.941-5.995 1.227-13.853 8.295-6.627 13.756 6.198 4.685 15.641 1.111 19.602-5.072 4.596-7.175-1.782-11.263-8.319-12.054-6.463-0.782-12.611 0.911-14.02 7.818-0.859 4.213-1.28 11.865 0.996 15.796 0.546 0.944 1.762 1.48 2.823 1.148 0.015-4e-3 0.029-9e-3 0.044-0.014 0.788-0.246 1.583-0.889 1.746-1.746 0.145-0.76 0.267-2.043-0.028-2.816-0.795-2.083-4.309-2.667-4.821 0-1.2 6.239-0.14 13.565-0.152 19.883-9e-3 4.659-0.028 9.318-0.091 13.977-0.023 1.736-0.058 3.472-0.114 5.207-0.019 0.6-0.047 1.199-0.081 1.799-0.106 1.911-0.271-0.392 1.618-0.936-3.093 0.891-1.776 5.717 1.329 4.823z"/>
 <path d="m219.13 83.458c-1.408 13.87 0.213 27.785-0.565 41.677h5c-1e-3 -0.504-2e-3 -1.007-3e-3 -1.511-1.553 0.421-3.106 0.841-4.659 1.262 2.532 5.938 2.494 14.242-4.555 16.872-2.897 1.082-10.747-0.704-8.779-5.152 1.739-3.932 11.431-8.358 13.813-3.149 1.34 2.929 5.648 0.386 4.317-2.523-4.691-10.255-25.908-2.203-23.26 8.349 1.765 7.032 10.936 9.667 16.992 6.614 9.031-4.553 9.342-15.198 5.788-23.533-1.018-2.388-4.663-1.051-4.659 1.262 1e-3 0.504 2e-3 1.007 3e-3 1.511 6e-3 3.245 4.821 3.197 5 0 0.779-13.893-0.842-27.808 0.565-41.677 0.328-3.21-4.676-3.178-4.998-2e-3z"/>
 <path d="m263.4 121.28c1.407-13.871-0.213-27.785 0.565-41.678h-5c1e-3 0.503 2e-3 1.007 3e-3 1.511 1.553-0.42 3.106-0.841 4.659-1.262-2.532-5.938-2.494-14.242 4.554-16.873 2.897-1.082 10.747 0.705 8.779 5.153-1.738 3.932-11.431 8.358-13.813 3.149-1.34-2.929-5.648-0.386-4.316 2.523 4.691 10.254 25.907 2.203 23.26-8.349-1.766-7.032-10.937-9.667-16.993-6.614-9.03 4.553-9.341 15.199-5.788 23.533 1.019 2.387 4.664 1.051 4.659-1.262-1e-3 -0.503-2e-3 -1.007-3e-3 -1.511-6e-3 -3.245-4.82-3.197-5 0-0.778 13.893 0.842 27.807-0.565 41.678-0.326 3.209 4.677 3.178 4.999 2e-3z"/>
 <path d="m350.18 152.97c8.207-3.697 6.54-18.478 5.984-25.464-0.762-9.582-2.03-20.294-5.885-29.201-3.82-8.827-30.882-47.842-12.229-51.782-0.812-0.214-1.622-0.429-2.433-0.643 7.664 7.939 6.448 20.958 4.096 30.869-2.278 9.6-10.978 17.431-16.02 25.667-4.117 6.725-7.49 15.559-2.343 22.647 6.034 8.307 18.937 9.331 28.007 6.765 14.366-4.064 31.934-29.659 14.073-40.329-7.561-4.516-18.101-2.587-24.372 3.13-6.799 6.199-8.732 17.128-5.467 25.452 3.828 9.759 14.066 15.282 21.074 5.234 1.851-2.652-2.486-5.147-4.316-2.523-4.013 5.752-8.416 2.195-11.193-2.574-3.162-5.431-2.573-11.402-0.1-16.961 4.074-9.158 19.931-13.757 25.689-3.586 5.313 9.384-5.983 22.093-13.38 26.011-8.885 4.707-29.929 2.837-27.461-11.184 1.629-9.248 9.474-17.29 14.758-24.672 6.674-9.323 8.384-21.001 7.563-32.304-0.373-5.139-4.226-17.308-11.125-15.429-6.057 1.649-8.563 7.236-8.411 13.084 0.438 16.779 13.149 30.602 19.188 45.467 3.104 7.638 4.207 16.527 5.08 24.651 0.558 5.196 3.004 20.518-3.301 23.358-2.935 1.322-0.391 5.63 2.524 4.317z"/>
 <path d="m348.74 147.84c-3.312 2.505-8.691 3.535-12.063 0.515-2.932-2.625 2.139-5.662 4.553-5.164 1.576 0.325 3.427 3.25 1.693 4.495-1.028 0.739-2.41 0.119-2.992-0.83-0.294-0.478-0.299-0.023 0.425-0.037 0.083-1e-3 -0.525-3.282-0.608-3.484-0.215 0.811-0.429 1.622-0.644 2.432 0.67-0.111 1.055 0.188 1.154 0.897 1.122 2.99 5.957 1.696 4.822-1.329-1.579-4.207-5.846-6.512-9.512-3.103-0.588 0.546-0.962 1.656-0.644 2.432 1.357 3.307 5.599 5.927 8.539 2.53 1.182-1.366 1.195-3.815-0.611-4.736-1.876-0.956-4.182-0.821-5.991 0.23-3.978 2.309-1.467 7.631 1.502 9.433 3.744 2.272 8.236 0.128 9.771-3.582 1.421-3.433-0.677-7.409-3.514-9.308-3.854-2.58-9.666-0.771-12.139 2.863-2.879 4.23-1.275 8.925 2.909 11.457 4.735 2.866 11.616 1.827 15.873-1.394 2.537-1.918 0.051-6.263-2.523-4.317z"/>
 <line x1="419.84" x2="419.84" y1="56.757" y2="83.458" fill="none" stroke="#000" stroke-miterlimit="10" stroke-width="3"/>
 <line x1="425.15" x2="425.15" y1="53.129" y2="79.992" fill="none" stroke="#000" stroke-miterlimit="10" stroke-width="3"/>
 <line x1="413.02" x2="431.71" y1="77.351" y2="66.561" fill="none" stroke="#000" stroke-miterlimit="10" stroke-width="4"/>
 <line x1="412.22" x2="431.71" y1="71.687" y2="60.435" fill="none" stroke="#000" stroke-miterlimit="10" stroke-width="4"/>
 <path d="m74.572 229.66c-1.408 13.87 0.213 27.785-0.565 41.677h5c-1e-3 -0.503-2e-3 -1.007-3e-3 -1.511-1.553 0.42-3.105 0.842-4.659 1.262 2.532 5.938 2.495 14.242-4.554 16.872-2.897 1.082-10.747-0.704-8.78-5.152 1.739-3.933 11.43-8.358 13.814-3.149 1.34 2.929 5.648 0.386 4.316-2.523-4.69-10.254-25.908-2.203-23.259 8.349 1.765 7.032 10.936 9.667 16.993 6.614 9.03-4.553 9.341-15.199 5.788-23.533-1.019-2.387-4.664-1.051-4.659 1.262 1e-3 0.504 2e-3 1.008 3e-3 1.511 6e-3 3.245 4.821 3.197 5 0 0.778-13.893-0.843-27.808 0.565-41.677 0.325-3.209-4.678-3.178-5-2e-3z"/>
 <path d="m108.98 207.46c-1.408 13.87 0.213 27.785-0.565 41.677h5c-1e-3 -0.503-2e-3 -1.007-3e-3 -1.511-1.553 0.42-3.105 0.841-4.659 1.262 2.532 5.938 2.495 14.242-4.554 16.872-2.897 1.082-10.747-0.704-8.78-5.152 1.739-3.933 11.43-8.358 13.814-3.149 1.34 2.929 5.648 0.386 4.316-2.523-4.69-10.254-25.908-2.203-23.259 8.349 1.765 7.032 10.936 9.667 16.993 6.614 9.03-4.553 9.341-15.199 5.788-23.533-1.019-2.387-4.664-1.051-4.659 1.262 1e-3 0.503 2e-3 1.007 3e-3 1.511 6e-3 3.245 4.821 3.197 5 0 0.778-13.893-0.843-27.808 0.565-41.677 0.325-3.21-4.678-3.178-5-2e-3z"/>
 <path d="m76.511 234.87c7.136-2.061 13.885-5.631 20.199-9.479 5.739-3.498 12.171-7.858 15.483-13.893 1.552-2.828-2.766-5.35-4.317-2.523-3.134 5.709-9.464 9.524-14.861 12.813-5.556 3.386-11.564 6.45-17.833 8.26-3.092 0.894-1.776 5.719 1.329 4.822z"/>
 <path d="m161.29 221.44c-1.408 13.87 0.213 27.785-0.565 41.678h5l-3e-3 -1.512c-1.553 0.421-3.106 0.841-4.659 1.262 2.532 5.938 2.494 14.242-4.554 16.872-2.898 1.082-10.747-0.703-8.78-5.152 1.739-3.932 11.43-8.358 13.813-3.149 1.34 2.929 5.648 0.386 4.317-2.523-4.691-10.255-25.908-2.203-23.26 8.35 1.765 7.032 10.936 9.667 16.993 6.613 9.031-4.553 9.341-15.198 5.788-23.533-1.018-2.388-4.663-1.051-4.659 1.262l3e-3 1.512c6e-3 3.245 4.821 3.197 5 0 0.778-13.893-0.843-27.808 0.565-41.678 0.327-3.209-4.677-3.177-4.999-2e-3z"/>
 <path d="m195.7 199.24c-1.408 13.87 0.213 27.785-0.565 41.677h5c-1e-3 -0.503-2e-3 -1.007-3e-3 -1.511-1.553 0.42-3.106 0.841-4.659 1.262 2.532 5.938 2.495 14.243-4.555 16.873-2.897 1.081-10.747-0.705-8.779-5.153 1.739-3.932 11.431-8.358 13.813-3.149 1.34 2.929 5.648 0.386 4.317-2.523-4.691-10.254-25.909-2.204-23.26 8.348 1.765 7.032 10.937 9.668 16.993 6.615 9.031-4.553 9.341-15.199 5.788-23.534-1.018-2.387-4.663-1.051-4.659 1.262 1e-3 0.503 2e-3 1.007 3e-3 1.511 6e-3 3.245 4.821 3.197 5 0 0.778-13.893-0.843-27.808 0.565-41.677 0.326-3.208-4.677-3.177-4.999-1e-3z"/>
 <path d="m163.23 226.65c7.136-2.061 13.885-5.631 20.199-9.479 5.739-3.498 12.171-7.858 15.483-13.893 1.552-2.828-2.767-5.35-4.318-2.523-3.134 5.709-9.464 9.524-14.861 12.813-5.556 3.386-11.564 6.45-17.832 8.26-3.092 0.894-1.776 5.719 1.329 4.822z"/>
 <path d="m160.67 267.17c-5.461-0.034-14.049 0.335-14.751 7.471-0.234 2.385 1.802 4.518 3.805 5.41 2.311 1.029 4.671 0.936 7.034 0.178 2.187-0.702 4.394-1.876 5.955-3.586 1.43-1.566 2.451-4.847 0.494-6.49-3.286-2.761-8.693 0.203-11.799 2.024-1.073 0.63-1.719 2.329-0.897 3.421 0.833 1.107 1.583 1.392 2.827 1.816 3.061 1.043 4.363-3.787 1.329-4.822-0.364-0.124-0.726-0.18-1.078-0.328 0.498 0.384 0.996 0.767 1.494 1.149-0.085-0.113-0.17-0.226-0.255-0.339-0.299 1.14-0.598 2.28-0.897 3.421 1.749-1.027 3.909-2.229 5.954-2.458 0.899-0.101-0.549 0.169-0.623-1.04 6e-3 0.104-0.539 0.581-0.645 0.683-0.851 0.816-2.093 1.338-3.189 1.727-0.782 0.277-4.904 0.975-4.473-0.853 0.313-1.326 2.907-1.992 3.984-2.227 1.836-0.399 3.866-0.169 5.73-0.157 3.226 0.02 3.224-4.98 1e-3 -5z"/>
 <path d="m197.77 249.56c-4.354-4.868-11.506-5.437-15.67-0.027-1.373 1.783-2.15 4.353-1.291 6.529 1.155 2.926 4.105 4.039 7.062 4.152 2.657 0.103 6.088-0.249 8.164-2.089 2.826-2.505 0.794-6.314-1.912-7.913-2.938-1.735-7.478-3.207-9.441 0.702-1.806 3.596 2.778 6.638 5.988 6.248 1.353-0.165 2.5-1.013 2.5-2.5 0-1.237-1.144-2.665-2.5-2.5-0.503 0.062-0.894-2e-3 -1.357-0.229-1.078-0.53 0.972-0.181-0.323 1.428 0.428-0.284 0.358-0.289-0.209-0.016 0.129 0.068 0.27 0.108 0.421 0.12 0.848 0.224 1.636 0.643 2.398 1.065 0.312 0.173 0.387 0.286 0.653 0.557 0.426 0.433 0.114 0.578 0.242-0.324 0.025-0.178 0.169-0.313 0.301-0.409-0.287 0.209-0.474 0.268-0.763 0.365-0.679 0.23-1.398 0.357-2.11 0.429-1.27 0.128-2.815 0.229-3.912-0.322-0.308-0.155-0.565-0.564-0.462-0.303-0.193-0.49-0.129-0.421-0.062-0.738 0.156-0.738 0.806-1.696 1.487-2.21 2.54-1.915 5.184-0.803 7.263 1.521 2.151 2.408 5.675-1.141 3.533-3.536z"/>
 <path d="m399.02 250.47c1.408-13.869-0.213-27.784 0.565-41.677h-5c1e-3 0.503 2e-3 1.007 3e-3 1.511 1.553-0.42 3.105-0.841 4.659-1.262-2.532-5.938-2.495-14.242 4.554-16.873 2.898-1.081 10.747 0.705 8.779 5.153-1.738 3.932-11.43 8.358-13.813 3.149-1.34-2.929-5.648-0.386-4.316 2.523 4.69 10.254 25.907 2.203 23.26-8.349-1.766-7.032-10.937-9.667-16.993-6.614-9.03 4.553-9.341 15.199-5.788 23.533 1.019 2.387 4.664 1.051 4.659-1.262-1e-3 -0.503-2e-3 -1.007-3e-3 -1.511-6e-3 -3.245-4.821-3.197-5 0-0.778 13.893 0.843 27.808-0.565 41.677-0.327 3.209 4.676 3.178 4.999 2e-3z"/>
 <path d="m364.62 272.67c1.407-13.87-0.214-27.785 0.564-41.678h-5c1e-3 0.503 3e-3 1.007 4e-3 1.511 1.553-0.42 3.105-0.841 4.659-1.262-2.533-5.938-2.495-14.242 4.553-16.873 2.898-1.081 10.747 0.705 8.78 5.153-1.739 3.932-11.431 8.358-13.813 3.149-1.341-2.929-5.649-0.386-4.318 2.523 4.691 10.254 25.909 2.203 23.261-8.349-1.766-7.031-10.937-9.667-16.992-6.614-9.031 4.553-9.342 15.199-5.788 23.533 1.019 2.386 4.665 1.052 4.659-1.262-1e-3 -0.503-3e-3 -1.007-4e-3 -1.511-9e-3 -3.245-4.821-3.197-5 0-0.778 13.893 0.843 27.808-0.564 41.678-0.326 3.209 4.677 3.178 4.999 2e-3z"/>
 <path d="m397.08 245.26c-7.135 2.061-13.885 5.631-20.198 9.479-5.739 3.497-12.172 7.858-15.484 13.893-1.552 2.828 2.767 5.351 4.318 2.523 3.134-5.71 9.464-9.523 14.861-12.813 5.556-3.385 11.564-6.449 17.833-8.26 3.091-0.893 1.776-5.719-1.33-4.822z"/>
 <path d="m312.3 258.69c1.409-13.87-0.212-27.785 0.566-41.678h-5c1e-3 0.504 1e-3 1.008 2e-3 1.512 1.553-0.42 3.105-0.841 4.659-1.262-2.531-5.939-2.494-14.242 4.555-16.873 2.897-1.082 10.747 0.703 8.779 5.153-1.738 3.932-11.43 8.358-13.813 3.149-1.341-2.929-5.649-0.386-4.318 2.523 4.691 10.255 25.908 2.203 23.261-8.35-1.766-7.032-10.937-9.667-16.993-6.613-9.031 4.553-9.341 15.198-5.789 23.533 1.019 2.389 4.662 1.05 4.659-1.262-1e-3 -0.504-1e-3 -1.008-2e-3 -1.512-4e-3 -3.245-4.821-3.197-5 0-0.778 13.893 0.843 27.808-0.566 41.678-0.326 3.209 4.678 3.177 5 2e-3z"/>
 <path d="m277.89 280.89c1.409-13.869-0.212-27.784 0.566-41.677h-5c0 0.503 2e-3 1.007 2e-3 1.511 1.553-0.42 3.105-0.841 4.658-1.262-2.53-5.939-2.493-14.243 4.556-16.873 2.897-1.082 10.747 0.705 8.779 5.153-1.738 3.932-11.43 8.357-13.813 3.148-1.34-2.929-5.648-0.386-4.316 2.523 4.69 10.254 25.908 2.204 23.26-8.348-1.766-7.032-10.937-9.667-16.993-6.615-9.032 4.553-9.341 15.199-5.788 23.534 1.018 2.389 4.661 1.05 4.658-1.262 0-0.503-2e-3 -1.007-2e-3 -1.511-4e-3 -3.245-4.82-3.197-5 0-0.778 13.893 0.843 27.808-0.566 41.677-0.328 3.209 4.676 3.177 4.999 2e-3z"/>
 <path d="m310.36 253.48c-7.135 2.061-13.885 5.631-20.198 9.479-5.739 3.497-12.171 7.858-15.482 13.893-1.553 2.828 2.766 5.351 4.316 2.523 3.135-5.709 9.464-9.523 14.861-12.813 5.556-3.386 11.564-6.45 17.833-8.26 3.091-0.894 1.776-5.719-1.33-4.822z"/>
 <path d="m312.92 212.96c5.461 0.034 14.049-0.335 14.751-7.471 0.235-2.385-1.802-4.518-3.804-5.41-2.311-1.03-4.671-0.936-7.034-0.177-2.187 0.702-4.395 1.875-5.956 3.585-1.43 1.566-2.451 4.847-0.494 6.491 3.287 2.76 8.693-0.203 11.799-2.025 1.073-0.63 1.718-2.328 0.897-3.42-0.833-1.108-1.583-1.392-2.826-1.816-3.061-1.044-4.363 3.787-1.33 4.821 0.365 0.125 0.726 0.181 1.078 0.328l-1.494-1.149c0.085 0.113 0.17 0.226 0.254 0.339 0.3-1.14 0.599-2.28 0.897-3.42-1.749 1.026-3.908 2.229-5.953 2.458-0.899 0.101 0.548-0.168 0.622 1.04-6e-3 -0.103 0.539-0.581 0.645-0.682 0.852-0.817 2.094-1.338 3.19-1.727 0.781-0.277 4.903-0.974 4.473 0.853-0.313 1.326-2.906 1.993-3.983 2.227-1.836 0.399-3.867 0.169-5.731 0.157-3.227-0.022-3.225 4.978-1e-3 4.998z"/>
 <path d="m275.82 230.56c4.354 4.868 11.505 5.436 15.67 0.027 1.372-1.783 2.149-4.353 1.291-6.53-1.154-2.925-4.105-4.039-7.062-4.152-2.657-0.103-6.089 0.249-8.165 2.089-2.825 2.504-0.793 6.314 1.913 7.913 2.938 1.735 7.479 3.207 9.441-0.702 1.806-3.597-2.779-6.639-5.989-6.248-1.353 0.165-2.5 1.013-2.5 2.5 0 1.238 1.144 2.665 2.5 2.5 0.503-0.061 0.894 1e-3 1.357 0.229 1.078 0.531-0.972 0.181 0.323-1.428-0.428 0.284-0.358 0.29 0.209 0.016-0.129-0.069-0.27-0.109-0.421-0.12-0.848-0.224-1.636-0.642-2.397-1.065-0.312-0.173-0.388-0.286-0.653-0.556-0.426-0.433-0.114-0.579-0.242 0.324-0.024 0.177-0.168 0.313-0.301 0.409 0.287-0.209 0.474-0.267 0.764-0.365 0.679-0.23 1.398-0.357 2.11-0.429 1.27-0.127 2.815-0.229 3.912 0.323 0.309 0.155 0.565 0.565 0.462 0.303 0.193 0.49 0.129 0.421 0.062 0.738-0.156 0.739-0.806 1.696-1.486 2.21-2.54 1.916-5.184 0.803-7.263-1.521-2.154-2.408-5.677 1.14-3.535 3.535z"/>
 <path d="m74.572 357.65c-1.408 13.869 0.213 27.784-0.565 41.677h5c-1e-3 -0.504-2e-3 -1.007-3e-3 -1.511-1.553 0.421-3.106 0.841-4.659 1.262 2.532 5.938 2.494 14.242-4.554 16.872-2.898 1.082-10.747-0.704-8.78-5.152 1.739-3.933 11.431-8.358 13.813-3.149 1.34 2.929 5.648 0.386 4.317-2.523-4.691-10.254-25.909-2.203-23.26 8.349 1.765 7.032 10.936 9.667 16.993 6.614 9.031-4.553 9.341-15.199 5.788-23.533-1.018-2.388-4.663-1.051-4.659 1.262 1e-3 0.504 2e-3 1.007 3e-3 1.511 6e-3 3.245 4.821 3.197 5 0 0.778-13.893-0.843-27.808 0.565-41.677 0.326-3.209-4.677-3.177-4.999-2e-3z"/>
 <path d="m108.98 370.05c-1.408 13.87 0.213 27.785-0.565 41.678h5c-1e-3 -0.504-2e-3 -1.007-3e-3 -1.511-1.553 0.421-3.106 0.841-4.659 1.262 2.532 5.938 2.494 14.242-4.554 16.872-2.898 1.082-10.747-0.704-8.78-5.152 1.739-3.933 11.431-8.358 13.813-3.149 1.34 2.929 5.648 0.386 4.317-2.523-4.691-10.254-25.909-2.203-23.26 8.349 1.765 7.032 10.936 9.667 16.993 6.614 9.031-4.553 9.341-15.199 5.788-23.533-1.018-2.388-4.663-1.051-4.659 1.262 1e-3 0.504 2e-3 1.007 3e-3 1.511 6e-3 3.245 4.821 3.197 5 0 0.778-13.893-0.842-27.808 0.565-41.678 0.327-3.209-4.677-3.178-4.999-2e-3z"/>
 <path d="m76.407 355.24c-2.639 0.815-3.947 3.88-1.221 5.6 2.745 1.731 6.519 2.231 9.615 2.958 5.096 1.196 10.218 2.278 15.291 3.574 2.18 0.557 4.345 1.174 6.471 1.915 0.67 0.234 1.313 0.505 1.949 0.819 1.454 0.718 0.132 0.479 0.554-0.718-1.075 3.049 3.757 4.349 4.821 1.33 2.085-5.912-11.782-8.012-14.968-8.795-4.505-1.107-9.045-2.069-13.561-3.129-1.768-0.414-3.53-0.854-5.274-1.358-0.619-0.18-1.229-0.386-1.834-0.609-0.913-0.339-2.007 3.696-0.513 3.235 3.071-0.948 1.76-5.775-1.33-4.822z"/>
 <path d="m76.345 365.01c10.308 5.338 22.086 6.596 33.384 8.448 3.153 0.517 4.505-4.301 1.329-4.822-10.799-1.77-22.335-2.84-32.19-7.944-2.858-1.48-5.388 2.834-2.523 4.318z"/>
 <path d="m161.29 357.65c-1.408 13.869 0.213 27.785-0.565 41.678h5l-3e-3 -1.512c-1.553 0.422-3.106 0.842-4.659 1.262 2.532 5.939 2.494 14.242-4.554 16.873-2.898 1.082-10.747-0.705-8.78-5.152 1.739-3.934 11.431-8.359 13.813-3.15 1.34 2.93 5.648 0.387 4.317-2.523-4.691-10.254-25.909-2.203-23.26 8.35 1.765 7.031 10.936 9.666 16.993 6.613 9.031-4.553 9.341-15.199 5.788-23.533-1.018-2.387-4.663-1.051-4.659 1.262l3e-3 1.512c6e-3 3.244 4.821 3.197 5 0 0.778-13.893-0.843-27.809 0.565-41.678 0.327-3.209-4.677-3.177-4.999-2e-3z"/>
 <path d="m195.7 370.05c-1.409 13.87 0.212 27.785-0.566 41.678h5c-1e-3 -0.504-1e-3 -1.006-2e-3 -1.51-1.553 0.42-3.105 0.84-4.658 1.262 2.53 5.938 2.493 14.242-4.556 16.871-2.897 1.082-10.747-0.703-8.779-5.152 1.738-3.932 11.43-8.357 13.813-3.148 1.34 2.928 5.648 0.385 4.316-2.523-4.69-10.254-25.907-2.203-23.26 8.348 1.766 7.033 10.937 9.668 16.993 6.615 9.031-4.553 9.341-15.199 5.788-23.533-1.018-2.389-4.661-1.051-4.658 1.262 1e-3 0.504 1e-3 1.006 2e-3 1.51 4e-3 3.246 4.821 3.197 5 0 0.778-13.893-0.843-27.808 0.566-41.678 0.327-3.209-4.677-3.178-4.999-2e-3z"/>
 <path d="m163.13 355.24c-2.639 0.814-3.947 3.879-1.221 5.6 2.745 1.73 6.519 2.23 9.615 2.957 5.096 1.196 10.218 2.278 15.29 3.574 2.181 0.558 4.346 1.175 6.471 1.916 0.67 0.233 1.313 0.504 1.949 0.818 1.454 0.719 0.132 0.48 0.554-0.717-1.075 3.049 3.757 4.349 4.822 1.329 2.084-5.911-11.783-8.012-14.969-8.794-4.505-1.107-9.045-2.069-13.562-3.129-1.767-0.415-3.529-0.854-5.273-1.359-0.62-0.179-1.23-0.385-1.834-0.609-0.913-0.339-2.007 3.697-0.513 3.235 3.072-0.948 1.761-5.774-1.329-4.821z"/>
 <path d="m163.07 365.01c10.308 5.338 22.086 6.596 33.384 8.448 3.153 0.517 4.506-4.301 1.33-4.821-10.8-1.771-22.336-2.841-32.19-7.944-2.859-1.481-5.388 2.833-2.524 4.317z"/>
 <path d="m159.66 404.09c-5.265-1.767-10.805 0.668-12.694 5.953-0.749 2.098-0.236 4.275 1.121 5.96 1.756 2.182 5.175 1.921 7.573 1.409 4.694-1.002 11.751-7.539 8.994-12.673-2.859-5.324-11.598 1.061-13.817 4-1.114 1.476 0.381 3.913 2.159 3.762 1.628-0.139 3.117-0.578 4.665-1.089-0.443-1.607-0.886-3.215-1.329-4.822-2.771 1.111-5.508 2.255-8.097 3.753-2.789 1.613-0.272 5.935 2.523 4.316 2.217-1.282 4.528-2.296 6.903-3.247 2.916-1.169 1.793-5.854-1.329-4.822-1.077 0.356-2.195 0.813-3.335 0.911 0.72 1.254 1.439 2.508 2.159 3.762 0.48-0.636 2.014-1.609 2.928-2.179 0.588-0.366 1.212-0.712 1.856-0.97 1.572-0.63 0.542 0.143 0.411-0.986 0.137 1.178-1.812 2.686-2.554 3.354-1.172 1.056-2.51 1.905-4.053 2.234-1.914 0.408-2.577-0.137-1.785-1.737 1.237-2.497 3.96-2.877 6.374-2.066 3.063 1.027 4.367-3.803 1.327-4.823z"/>
 <path d="m196 416c-5.799-0.033-15.742-0.561-16.773 7.3-0.4 3.051 1.553 5.686 4.205 6.98 2.993 1.46 6.328 0.816 9.178-0.617 4.207-2.115 9.95-9.024 4.153-12.821-5.551-3.637-13.108 1.568-14.172 7.493-0.245 1.366 0.352 2.656 1.746 3.076 3.888 1.169 10.177 0.261 10.448-4.917 0.106-2.018-1.388-4.028-3.543-4.01-2.443 0.021-3.862 1.709-4.65 3.851-1.117 3.033 3.717 4.329 4.821 1.33 0.541-0.82-0.017-1.311-1.674-1.471-0.275 0.54-0.758 0.609-1.292 0.735-0.871 0.207-1.951-0.091-2.78-0.341 0.582 1.025 1.164 2.051 1.746 3.076 0.428-2.381 3.541-6.181 6.318-4.841 1.983 0.957-3.356 4.377-4.14 4.771-1.276 0.642-2.89 0.73-4.174 0.104-1.614-0.788-1.525-2.387-0.159-3.411 2.776-2.082 7.511-1.307 10.744-1.288 3.223 0.02 3.221-4.98-2e-3 -4.999z"/>
 <path d="m393.37 434.47c1.408-13.869-0.213-27.784 0.565-41.677h-5c1e-3 0.504 2e-3 1.007 3e-3 1.511 1.553-0.421 3.105-0.841 4.658-1.262-2.531-5.938-2.494-14.242 4.555-16.872 2.897-1.082 10.747 0.704 8.78 5.152-1.739 3.933-11.431 8.358-13.813 3.149-1.341-2.929-5.649-0.386-4.318 2.523 4.691 10.254 25.909 2.203 23.261-8.349-1.766-7.032-10.937-9.667-16.993-6.614-9.03 4.553-9.341 15.199-5.787 23.533 1.018 2.388 4.663 1.051 4.658-1.262-1e-3 -0.504-2e-3 -1.007-3e-3 -1.511-6e-3 -3.245-4.821-3.197-5 0-0.778 13.893 0.843 27.808-0.565 41.677-0.326 3.209 4.677 3.177 4.999 2e-3z"/>
 <path d="m358.96 422.07c1.408-13.87-0.213-27.785 0.565-41.678h-5c1e-3 0.504 2e-3 1.007 3e-3 1.511 1.553-0.421 3.105-0.841 4.658-1.262-2.531-5.938-2.494-14.242 4.555-16.872 2.897-1.082 10.747 0.704 8.78 5.152-1.739 3.933-11.431 8.358-13.813 3.149-1.341-2.929-5.649-0.386-4.318 2.523 4.691 10.254 25.909 2.203 23.261-8.349-1.766-7.032-10.937-9.667-16.993-6.614-9.03 4.553-9.341 15.199-5.787 23.533 1.018 2.388 4.663 1.051 4.658-1.262-1e-3 -0.504-2e-3 -1.007-3e-3 -1.511-6e-3 -3.245-4.821-3.197-5 0-0.778 13.893 0.843 27.808-0.565 41.678-0.326 3.209 4.677 3.178 4.999 2e-3z"/>
 <path d="m391.53 436.88c2.639-0.815 3.946-3.88 1.22-5.6-2.744-1.731-6.519-2.231-9.614-2.958-5.097-1.196-10.218-2.278-15.291-3.574-2.18-0.557-4.345-1.174-6.47-1.915-0.67-0.234-1.313-0.505-1.949-0.819-1.454-0.718-0.132-0.479-0.554 0.718 1.075-3.049-3.757-4.349-4.822-1.33-2.084 5.912 11.782 8.012 14.968 8.795 4.506 1.107 9.045 2.069 13.562 3.129 1.768 0.414 3.529 0.854 5.274 1.358 0.619 0.18 1.229 0.386 1.834 0.609 0.913 0.339 2.007-3.696 0.513-3.235-3.071 0.948-1.761 5.775 1.329 4.822z"/>
 <path d="m391.59 427.1c-10.308-5.338-22.087-6.596-33.384-8.448-3.153-0.517-4.506 4.301-1.33 4.822 10.799 1.77 22.336 2.84 32.19 7.944 2.859 1.481 5.388-2.834 2.524-4.318z"/>
 <path d="m306.64 434.47c1.409-13.869-0.212-27.785 0.566-41.678h-5c1e-3 0.504 1e-3 1.008 2e-3 1.512 1.553-0.421 3.105-0.841 4.658-1.262-2.53-5.939-2.493-14.242 4.556-16.872 2.897-1.082 10.747 0.703 8.779 5.152-1.738 3.932-11.43 8.358-13.813 3.149-1.34-2.929-5.648-0.386-4.316 2.523 4.691 10.255 25.907 2.203 23.26-8.35-1.766-7.032-10.937-9.667-16.993-6.613-9.031 4.553-9.341 15.198-5.788 23.533 1.018 2.389 4.661 1.05 4.658-1.262-1e-3 -0.504-1e-3 -1.008-2e-3 -1.512-4e-3 -3.245-4.821-3.197-5 0-0.778 13.893 0.843 27.809-0.566 41.678-0.328 3.209 4.676 3.177 4.999 2e-3z"/>
 <path d="m272.24 422.07c1.409-13.869-0.212-27.785 0.566-41.678h-5c1e-3 0.503 1e-3 1.007 2e-3 1.51 1.553-0.421 3.105-0.841 4.658-1.262-2.53-5.938-2.493-14.242 4.556-16.872 2.897-1.081 10.747 0.705 8.779 5.153-1.738 3.932-11.43 8.357-13.813 3.148-1.34-2.929-5.648-0.386-4.316 2.523 4.69 10.254 25.908 2.204 23.26-8.349-1.766-7.031-10.938-9.667-16.993-6.614-9.031 4.553-9.341 15.198-5.788 23.533 1.018 2.389 4.661 1.05 4.658-1.262-1e-3 -0.503-1e-3 -1.007-2e-3 -1.51-4e-3 -3.245-4.821-3.197-5 0-0.778 13.893 0.843 27.809-0.566 41.678-0.327 3.209 4.677 3.178 4.999 2e-3z"/>
 <path d="m304.81 436.88c2.639-0.815 3.946-3.88 1.221-5.6-2.744-1.731-6.519-2.231-9.614-2.958-5.097-1.196-10.219-2.278-15.291-3.574-2.181-0.557-4.346-1.174-6.471-1.915-0.67-0.234-1.313-0.505-1.949-0.819-1.454-0.718-0.132-0.479-0.554 0.718 1.075-3.049-3.757-4.349-4.822-1.33-2.084 5.912 11.783 8.012 14.969 8.795 4.505 1.107 9.045 2.069 13.562 3.129 1.768 0.414 3.529 0.854 5.273 1.358 0.62 0.18 1.23 0.386 1.835 0.609 0.912 0.339 2.006-3.696 0.512-3.235-3.072 0.948-1.761 5.775 1.329 4.822z"/>
 <path d="m304.87 427.1c-10.308-5.338-22.086-6.596-33.384-8.448-3.153-0.517-4.506 4.301-1.33 4.822 10.8 1.77 22.336 2.84 32.19 7.942 2.859 1.481 5.388-2.833 2.524-4.316z"/>
 <path d="m308.27 388.03c5.266 1.767 10.806-0.668 12.694-5.953 0.749-2.098 0.235-4.275-1.121-5.96-1.756-2.182-5.175-1.921-7.573-1.409-4.694 1.002-11.75 7.539-8.993 12.673 2.858 5.324 11.598-1.061 13.816-4 1.114-1.476-0.381-3.913-2.158-3.762-1.629 0.139-3.117 0.578-4.665 1.089 0.443 1.607 0.887 3.215 1.33 4.822 2.771-1.111 5.508-2.255 8.097-3.753 2.789-1.613 0.272-5.935-2.523-4.316-2.217 1.282-4.528 2.296-6.903 3.247-2.915 1.169-1.793 5.854 1.33 4.822 1.076-0.356 2.195-0.813 3.335-0.911-0.72-1.254-1.439-2.508-2.158-3.762-0.48 0.636-2.014 1.609-2.929 2.179-0.588 0.366-1.212 0.712-1.855 0.97-1.572 0.63-0.542-0.143-0.411 0.986-0.137-1.178 1.813-2.686 2.554-3.354 1.173-1.056 2.511-1.905 4.053-2.234 1.914-0.408 2.577 0.137 1.785 1.737-1.236 2.497-3.961 2.877-6.373 2.066-3.068-1.027-4.372 3.803-1.332 4.823z"/>
 <path d="m271.94 376.12c5.799 0.033 15.742 0.561 16.773-7.3 0.4-3.051-1.553-5.686-4.205-6.98-2.992-1.46-6.327-0.816-9.177 0.617-4.207 2.115-9.95 9.024-4.153 12.821 5.551 3.637 13.108-1.568 14.173-7.493 0.245-1.366-0.353-2.656-1.746-3.076-3.889-1.169-10.177-0.261-10.448 4.917-0.105 2.018 1.388 4.028 3.544 4.01 2.442-0.021 3.861-1.709 4.65-3.851 1.116-3.033-3.718-4.329-4.822-1.33-0.54 0.82 0.018 1.311 1.675 1.471 0.275-0.54 0.759-0.609 1.292-0.735 0.87-0.207 1.95 0.091 2.779 0.341-0.582-1.025-1.164-2.051-1.746-3.076-0.427 2.381-3.54 6.181-6.317 4.841-1.982-0.957 3.355-4.377 4.141-4.771 1.275-0.642 2.889-0.73 4.173-0.104 1.615 0.788 1.525 2.387 0.159 3.411-2.776 2.082-7.511 1.307-10.744 1.288-3.226-0.019-3.224 4.981-1e-3 4.999z"/>
</svg>
